<svg xmlns="http://www.w3.org/2000/svg" width="637" height="230" fill="none"><g clip-path="url(#a)"><g clip-path="url(#b)"><path fill="#fff" d="M236.84 133.91a10.46 10.46 0 0 1 1.88 7.97 13.36 13.36 0 0 1-2.3 5.46 31.78 31.78 0 0 1-5.68 5.98 82.81 82.81 0 0 1-8.15 6 58.95 58.95 0 0 1-13.17 6.27c-6.52 2.07-12.64 2.26-17.86-.45a51.18 51.18 0 0 1-12.23 3.8c-2.82 5.16-7.97 8.42-14.5 10.36a59.15 59.15 0 0 1-14.44 2.21c-1.97.08-6.38 0-10.1-.4a31.47 31.47 0 0 1-8.04-1.75 13.26 13.26 0 0 1-4.99-3.23 10.46 10.46 0 0 1-2.9-7.64 10.8 10.8 0 0 1-2.5-6.68c-.04-1.24.13-2.45.47-3.59a10.95 10.95 0 0 1-.6-11c.69-1.5 1.59-2.67 2.62-3.56a52.75 52.75 0 1 1 98.14-30.32c1.5.11 3.01.57 4.58 1.5a10.98 10.98 0 0 1 5.68 9.44 11 11 0 0 1 2.39 2.72 10.88 10.88 0 0 1 1.7 6.91Z"/><path fill="#FFD21E" d="M182.41 159.13a43.9 43.9 0 1 0-25.8-83.94 43.9 43.9 0 0 0 25.8 83.94Z"/><path fill="#FF9D0B" d="M211.48 104.26a43.9 43.9 0 1 0-83.93 25.8 43.9 43.9 0 0 0 83.93-25.8Zm-88.76 27.28a48.96 48.96 0 1 1 93.6-28.76 48.96 48.96 0 0 1-93.6 28.76Z"/><path fill="#3A3B45" d="M179.64 101.55c1.7.07 3.3 3.05 4.6 1.74a6.32 6.32 0 1 0-8.94.01c1.16 1.17 2.82-1.81 4.34-1.75ZM151.19 110.3c-1.37 1-1.01 4.36-2.82 4.01a6.32 6.32 0 1 1 7.4-5c-.31 1.61-3.36.07-4.58.98ZM174.61 134.81c11.87-3.65 12.45-15.4 10.78-20.84-.87-2.82-2.5-1.35-5.07 1.09-2.38 2.25-5.58 5.33-9.75 6.61-8.67 2.67-18.25-3.48-16.58 1.95 1.67 5.44 8.75 14.84 20.62 11.2Z"/><mask id="c" width="34" height="24" x="153" y="112" maskUnits="userSpaceOnUse" style="mask-type:alpha"><path fill="#fff" d="M174.6 134.81c11.87-3.65 12.45-15.4 10.78-20.84-.87-2.82-2.5-1.35-5.07 1.09-2.38 2.25-5.58 5.33-9.74 6.61-8.67 2.67-18.26-3.48-16.59 1.95 1.67 5.44 8.75 14.84 20.62 11.2Z"/></mask><g mask="url(#c)"><path fill="#F94040" d="M178.7 147.05a10.96 10.96 0 0 0-3.1-21.43c-1.1-.01-1.11 3.78-2.22 4.12-1.04.32-3.12-2.86-3.98-2.28a10.96 10.96 0 0 0 9.3 19.6Z"/></g><path fill="#FF9D0B" d="M196.13 102.7a4.1 4.1 0 1 0-2.41-7.85 4.1 4.1 0 0 0 2.41 7.85ZM139.97 119.96a4.1 4.1 0 1 0-2.4-7.85 4.1 4.1 0 0 0 2.4 7.85ZM135.98 135.73a6.59 6.59 0 0 0-4.23 3.77 7.55 7.55 0 0 0-.21 5.03c-.9.02-1.72.13-2.46.35a6.65 6.65 0 0 0-4.14 3.49 7.33 7.33 0 0 0-.14 6.37 7.4 7.4 0 0 0 1.78 2.38 6.7 6.7 0 0 0-1.11 4.06 7.42 7.42 0 0 0 2.71 5.43 6.6 6.6 0 0 0 1.42 6.2c2.1 2.42 5.85 3.68 12.56 4.21 4.16.33 7.85.23 7.89.23 5.3-.24 9.94-.96 13.79-2.14 7.07-2.17 11.47-5.9 13.07-11.06 2.57-8.31-.03-14.4-7.96-18.6-4.39-2.32-8.14-6.58-8.94-7.52-1.93-2.93-5.5-5.74-9.62-4.48a7.2 7.2 0 0 0-4.64 4.67 16.57 16.57 0 0 0-4.51-2.32 9.35 9.35 0 0 0-5.26-.07Zm1.48 4.83a4.52 4.52 0 0 1 2.44.11c3.08.85 10.68 7.86 13.52 10.63a3.07 3.07 0 0 0 3.08.79c1.86-.58 2.75-2.88-1.12-4.26-5.82-2.09-5.94-8.38-3.8-9.43l.3-.12c2.05-.63 4.04 2.63 4.04 2.63s4.7 5.85 10.66 9c5.96 3.17 7.32 6.75 5.5 12.65-1.25 4.02-5.28 6.35-9.72 7.72-4.62 1.42-9.68 1.8-12.54 1.92-.14 0-17.65.4-16.8-4.1.14-.75.63-1.19 1.34-1.4 2.87-.89 9.41 1.78 11.66 1.1.5-.16.8-.48.78-1.05-.1-3.73-16.06-.4-16.29-5.78-.04-.96.48-1.5 1.36-1.77 3.8-1.17 14.37 2.89 16.16 2.34.13-.04.22-.11.25-.21.45-1.72-.35-2.58-7.83-4.46s-12.62-2.81-10.94-6.33c.2-.4.56-.67 1.06-.83 3.83-1.17 15.4 4.28 15.4 4.28s3.23 1.8 4.7 1.34c.34-.1.6-.33.69-.72.5-2.09-12.78-6.94-14.42-10.12-1.12-2.16-.77-3.53.52-3.93Z"/><path fill="#FFD21E" d="M172.08 162.56c1.83-5.9.47-9.48-5.5-12.64-5.96-3.16-10.66-9-10.66-9s-2.18-3.57-4.33-2.52c-2.15 1.05-2.03 7.34 3.8 9.43 5.8 2.08.88 6.23-1.97 3.47-2.84-2.77-10.43-9.78-13.51-10.63-3.08-.84-4.61.64-2.97 3.82 1.64 3.18 14.93 8.03 14.42 10.12-.5 2.09-5.38-.62-5.38-.62s-14.8-6.97-16.47-3.45c-1.67 3.51 3.46 4.45 10.94 6.33 7.48 1.88 8.28 2.74 7.83 4.46-.45 1.72-17.99-5.74-17.76-.37.22 5.38 16.18 2.06 16.28 5.79.1 3.73-12.93-3.15-13.78 1.36-.85 4.5 16.66 4.1 16.8 4.09 5.63-.25 19.72-1.45 22.26-9.64Z"/><path fill="#FF9D0B" d="M208.3 113.5a6.59 6.59 0 0 1 5.6.75 7.55 7.55 0 0 1 3 4.04c.75-.48 1.5-.86 2.24-1.09a6.65 6.65 0 0 1 5.38.56 7.32 7.32 0 0 1 3.7 5.2c.16 1.02.1 2-.14 2.96a6.7 6.7 0 0 1 3.2 2.73c.63 1 1.62 3.2.8 6.02a6.6 6.6 0 0 1 2.3 5.93c-.36 3.18-2.76 6.33-8 10.54a82.46 82.46 0 0 1-6.4 4.62 56.03 56.03 0 0 1-12.62 5.98c-7.07 2.17-12.8 1.56-17.02-1.81-6.8-5.44-8.07-11.94-3.87-19.86 2.33-4.39 3.04-10.02 3.17-11.25-.05-3.5 1.33-7.84 5.45-9.1a7.2 7.2 0 0 1 6.46 1.26 16.6 16.6 0 0 1 2.43-4.46 9.36 9.36 0 0 1 4.31-3.02Zm1.48 4.84c-.62.19-1.3.68-1.96 1.46-2.07 2.43-4.42 12.5-5.22 16.38a3.07 3.07 0 0 1-2.1 2.38c-1.86.57-3.88-.83-1.46-4.15 3.64-5 .2-10.27-2.16-9.93l-.3.06c-2.06.64-1.87 4.45-1.87 4.45s-.61 7.49-3.77 13.44c-3.16 5.96-2.27 9.7 2.55 13.55 3.29 2.62 7.94 2.3 12.38.93 4.62-1.42 9.01-3.95 11.45-5.45.12-.08 14.84-9.58 11.6-12.83-.54-.55-1.18-.63-1.9-.41-2.87.88-6.78 6.76-9.03 7.45-.5.16-.92.05-1.23-.42-2.01-3.15 13.06-9.36 10.23-13.94-.5-.8-1.24-.97-2.12-.7-3.8 1.17-10.27 10.47-12.05 11.02-.14.04-.25.03-.33-.04-1.34-1.17-1.16-2.33 3.98-8.08 5.13-5.76 8.85-9.42 5.5-11.39-.4-.22-.85-.24-1.35-.08-3.83 1.17-10.34 12.19-10.34 12.19s-1.66 3.29-3.14 3.74a.94.94 0 0 1-.97-.2c-1.59-1.45 6.68-12.93 6.25-16.48-.3-2.41-1.35-3.35-2.64-2.95Z"/><path fill="#FFD21E" d="M193.5 155.97c-4.83-3.85-5.72-7.58-2.56-13.54 3.16-5.96 3.77-13.44 3.77-13.44s-.2-4.18 2.17-4.51c2.37-.34 5.8 4.93 2.16 9.93-3.64 5 2.77 5.65 3.57 1.77.8-3.88 3.14-13.96 5.21-16.38 2.08-2.43 4.17-2.07 4.6 1.48.43 3.56-7.84 15.04-6.24 16.48 1.59 1.44 4.1-3.53 4.1-3.53s8.33-14.08 11.69-12.1c3.36 1.96-.37 5.62-5.5 11.37-5.13 5.76-5.31 6.92-3.97 8.09 1.34 1.17 11.65-14.85 14.49-10.28 2.84 4.58-12.24 10.8-10.22 13.93 2.01 3.15 8.93-9.86 12.16-6.61 3.23 3.24-11.49 12.75-11.6 12.82-4.8 2.95-17.14 9.88-23.84 4.53Z"/></g><g clip-path="url(#d)"><path fill="#fff" d="M401.58 169.6a10.46 10.46 0 0 1-7.48-3.33 13.36 13.36 0 0 1-2.96-5.14 31.82 31.82 0 0 1-1.31-8.14c-.2-3.73-.04-8.15.15-10.12a59 59 0 0 1 2.98-14.28c2.3-6.45 5.86-11.43 11.18-13.94a51.06 51.06 0 0 1 4.38-12.04c-2.4-5.37-1.88-11.43.53-17.82a59.16 59.16 0 0 1 6.97-12.82 84.09 84.09 0 0 1 6.43-7.8 31.44 31.44 0 0 1 6.27-5.34 13.26 13.26 0 0 1 5.59-2.02c2.8-.3 5.61.48 7.84 2.32 2.27-.11 4.59.5 6.83 2.06a11 11 0 0 1 2.58 2.54 10.96 10.96 0 0 1 9.13 6.18 10.4 10.4 0 0 1 1.22 4.24 52.75 52.75 0 1 1-35.28 96.47 10.44 10.44 0 0 1-3.95 2.74 10.98 10.98 0 0 1-10.96-1.2c-1.15.28-2.37.38-3.6.27a10.88 10.88 0 0 1-6.54-2.84Z"/><path fill="#FFD21E" d="M414.46 111a43.9 43.9 0 1 0 82.43 30.28A43.9 43.9 0 0 0 414.46 111Z"/><path fill="#FF9D0B" d="M440.53 167.36a43.9 43.9 0 1 0 30.28-82.43 43.9 43.9 0 0 0-30.28 82.43Zm32.02-87.17a48.96 48.96 0 1 1-33.76 91.91 48.96 48.96 0 0 1 33.76-91.91Z"/><path fill="#3A3B45" d="M461.97 143.65c-1.09 1.32-4.42.78-4.17 2.6a6.32 6.32 0 1 0 5.4-7.12c-1.63.23-.25 3.34-1.23 4.52ZM472.23 115.71c.03-1.7-2.86-3.45-1.49-4.68a6.32 6.32 0 1 1-.5 8.92c-1.09-1.23 1.97-2.71 2-4.24ZM438.54 119.51c-4.29 11.66 4.72 19.24 10.06 21.2 2.78 1.02 2.59-1.17 2.2-4.7-.35-3.26-.86-7.67.64-11.76 3.13-8.51 13.83-12.42 8.49-14.38-5.34-1.96-17.11-2.01-21.4 9.64Z"/><mask id="e" width="25" height="33" x="437" y="108" maskUnits="userSpaceOnUse" style="mask-type:alpha"><path fill="#fff" d="M438.54 119.5c-4.28 11.66 4.73 19.24 10.06 21.2 2.78 1.02 2.59-1.17 2.2-4.7-.34-3.26-.86-7.67.64-11.76 3.13-8.51 13.83-12.41 8.5-14.38-5.34-1.95-17.12-2.01-21.4 9.64Z"/></mask><g mask="url(#e)"><path fill="#F94040" d="M426.32 115.36a10.96 10.96 0 0 0 18.93 10.51c.68-.87-2.33-3.17-1.93-4.27.38-1.02 4.16-.75 4.22-1.78a10.96 10.96 0 0 0-21.22-4.46Z"/></g><path fill="#FF9D0B" d="M451.07 156.09a4.1 4.1 0 1 0 7.7 2.83 4.1 4.1 0 0 0-7.7-2.83ZM471.32 100.93a4.1 4.1 0 1 0 7.71 2.84 4.1 4.1 0 0 0-7.7-2.84ZM461.2 88.21c.7-1.92.54-3.92-.45-5.65a7.54 7.54 0 0 0-3.88-3.2c.53-.73.94-1.46 1.21-2.18a6.65 6.65 0 0 0-.27-5.4 7.32 7.32 0 0 0-4.99-3.97c-1-.22-1.99-.21-2.96-.03a6.71 6.71 0 0 0-2.56-3.34 7.42 7.42 0 0 0-5.97-1.13 6.6 6.6 0 0 0-5.8-2.62c-3.19.2-6.46 2.43-10.94 7.44a82.64 82.64 0 0 0-4.96 6.14 56 56 0 0 0-6.65 12.28c-2.55 6.94-2.25 12.7.9 17.1 5.05 7.08 11.47 8.69 19.61 4.92 4.5-2.09 10.17-2.5 11.4-2.56 3.5.24 7.9-.9 9.4-4.95a7.2 7.2 0 0 0-.91-6.52 16.58 16.58 0 0 0 4.57-2.18 9.35 9.35 0 0 0 3.24-4.15Zm-4.75-1.74c-.22.6-.75 1.25-1.57 1.87-2.53 1.94-12.72 3.74-16.64 4.33a3.07 3.07 0 0 0-2.49 1.97c-.67 1.83.62 3.93 4.07 1.69 5.18-3.37 10.26.35 9.8 2.7l-.08.29c-.74 2.01-4.55 1.63-4.55 1.63s-7.5.2-13.62 3.03c-6.12 2.83-9.8 1.75-13.39-3.28-2.44-3.42-1.86-8.04-.26-12.41 1.67-4.53 4.43-8.78 6.06-11.14.08-.11 10.37-14.3 13.43-10.9.52.58.57 1.23.31 1.93-1.03 2.82-7.12 6.4-7.93 8.62-.18.49-.1.91.36 1.24 3.03 2.18 10.05-12.53 14.46-9.45.78.54.91 1.28.6 2.15-1.38 3.73-11.01 9.68-11.66 11.44-.05.13-.04.24.02.33 1.1 1.4 2.26 1.28 8.29-3.54 6.02-4.82 9.88-8.34 11.66-4.87.2.4.2.85.02 1.34-1.39 3.76-12.74 9.67-12.74 9.67s-3.37 1.49-3.9 2.94c-.13.33-.1.66.16.97 1.35 1.67 13.25-5.97 16.78-5.35 2.4.42 3.28 1.53 2.8 2.8Z"/><path fill="#FFD21E" d="M417.99 100.7c3.58 5.02 7.26 6.11 13.38 3.28 6.12-2.84 13.63-3.04 13.63-3.04s4.16.42 4.62-1.92c.47-2.35-4.62-6.06-9.8-2.7-5.18 3.37-5.5-3.06-1.58-3.65 3.92-.59 14.1-2.39 16.64-4.33 2.54-1.94 2.3-4.05-1.24-4.67-3.52-.62-15.43 7.02-16.78 5.35-1.36-1.67 3.75-3.9 3.75-3.9s14.5-7.57 12.71-11.03c-1.78-3.46-5.63.06-11.66 4.88-6.02 4.82-7.19 4.93-8.29 3.53-1.1-1.4 15.46-10.84 11.05-13.92-4.42-3.08-11.44 11.64-14.47 9.46-3.02-2.18 10.33-8.39 7.27-11.79-3.07-3.4-13.36 10.78-13.44 10.9-3.2 4.62-10.78 16.57-5.8 23.55Z"/><path fill="#FF9D0B" d="M435.1 159.23a6.6 6.6 0 0 1-3.99 4.01 7.55 7.55 0 0 1-5.03-.06c-.06.9-.22 1.72-.48 2.44a6.65 6.65 0 0 1-3.7 3.94c-2.2.9-4.47.84-6.38-.2a7.38 7.38 0 0 1-2.28-1.9 6.7 6.7 0 0 1-4.1.9 7.41 7.41 0 0 1-5.29-3.01 6.65 6.65 0 0 1-6.11-1.75c-2.3-2.23-3.36-6.04-3.53-12.76-.1-4.19.2-7.86.2-7.9a56.03 56.03 0 0 1 2.87-13.66c2.55-6.94 6.5-11.13 11.75-12.45 8.44-2.12 14.38.8 18.14 8.95 2.09 4.5 6.14 8.48 7.04 9.33 2.82 2.08 5.43 5.8 3.94 9.85-.12.34-.27.68-.45 1a7.2 7.2 0 0 1-4.46 3.38 16.57 16.57 0 0 1 2.08 4.63 9.36 9.36 0 0 1-.21 5.26Zm-4.74-1.75c.22-.6.24-1.44.02-2.44-.68-3.12-7.27-11.08-9.88-14.07-.87-1-.96-2.2-.62-3.11.67-1.83 3.01-2.6 4.19 1.34 1.77 5.93 8.05 6.39 9.21 4.3.06-.1.1-.19.13-.28.74-2.02-2.4-4.18-2.4-4.18s-5.6-5.02-8.43-11.14c-2.83-6.12-6.33-7.67-12.32-6.17-4.08 1.03-6.63 4.93-8.24 9.3-1.66 4.53-2.3 9.56-2.59 12.4-.01.15-1.35 17.62 3.19 17.01.76-.1 1.22-.56 1.48-1.26 1.03-2.82-1.28-9.5-.47-11.7.18-.5.52-.77 1.08-.73 3.72.3-.46 16.06 4.9 16.57.95.1 1.53-.39 1.84-1.25 1.37-3.73-2.11-14.51-1.47-16.27.05-.13.13-.21.23-.23 1.74-.36 2.55.48 4.03 8.06 1.47 7.57 2.13 12.74 5.73 11.26.42-.17.7-.52.88-1.01 1.38-3.76-3.44-15.62-3.44-15.62s-1.61-3.31-1.08-4.76a.94.94 0 0 1 .75-.65c2.11-.39 6.25 13.14 9.33 14.95 2.1 1.23 3.48.96 3.95-.32Z"/><path fill="#FFD21E" d="M410.26 121.73c5.99-1.5 9.5.05 12.33 6.17s8.41 11.13 8.41 11.13 3.45 2.37 2.28 4.46c-1.16 2.1-7.44 1.63-9.21-4.29-1.77-5.92-6.18-1.22-3.57 1.77 2.6 2.98 9.2 10.95 9.88 14.07.68 3.12-.88 4.57-3.96 2.76-3.1-1.82-7.22-15.34-9.34-14.95-2.11.4.33 5.4.33 5.4s6.16 15.16 2.56 16.64c-3.6 1.48-4.26-3.7-5.73-11.27-1.48-7.57-2.29-8.41-4.03-8.06-1.74.36 4.76 18.27-.6 17.76-5.36-.51-1.18-16.27-4.9-16.57-3.72-.3 2.45 13.08-2.1 13.69-4.53.6-3.19-16.86-3.18-17 .56-5.6 2.52-19.62 10.83-21.7Z"/></g><g clip-path="url(#f)"><path fill="#fff" d="M569.8 200.4c.65 2.81.13 5.68-1.4 8.06a13.37 13.37 0 0 1-4.25 4.13 31.83 31.83 0 0 1-7.56 3.28 83.3 83.3 0 0 1-9.85 2.34c-5.02.76-9.8 1.08-14.57.62-6.82-.65-12.52-2.87-16.27-7.41a51.12 51.12 0 0 1-12.75-1.29c-4.6 3.65-10.61 4.64-17.4 3.87a59.14 59.14 0 0 1-14.14-3.61c-1.84-.7-5.87-2.5-9.14-4.32a31.43 31.43 0 0 1-6.72-4.76 13.25 13.25 0 0 1-3.32-4.92c-.98-2.64-.92-5.56.32-8.17a10.8 10.8 0 0 1 .32-7.12 10.99 10.99 0 0 1 1.82-3.13 10.96 10.96 0 0 1 3.75-10.37 10.38 10.38 0 0 1 3.81-2.23 52.75 52.75 0 0 1 100.02-29.22 53.2 53.2 0 0 1 4.03 12.14 52.72 52.72 0 0 1-1.86 27.57c1.33.68 2.54 1.7 3.62 3.16a10.98 10.98 0 0 1 1.53 10.91 11 11 0 0 1 1.14 3.44c.42 2.7-.05 5.05-1.14 7.03Z"/><path fill="#FFD21E" d="M509.83 202.31a43.9 43.9 0 1 0 9.1-87.34 43.9 43.9 0 0 0-9.1 87.34Z"/><path fill="#FF9D0B" d="M558.05 163.2a43.9 43.9 0 1 0-87.34-9.1 43.9 43.9 0 0 0 87.34 9.1Zm-92.36-9.63a48.96 48.96 0 1 1 97.4 10.14 48.96 48.96 0 0 1-97.4-10.14Z"/><path fill="#3A3B45" d="M529.8 148.24c1.55.73 1.84 4.09 3.55 3.4a6.32 6.32 0 1 0-8.23-3.49c.62 1.53 3.3-.57 4.69.09ZM500.2 145.15c-1.66.4-2.64 3.63-4.17 2.6a6.32 6.32 0 1 1 8.77-1.71c-.92 1.36-3.12-1.24-4.6-.89ZM512.17 176.88c12.35 1.29 17.48-9.3 18.07-14.96.3-2.94-1.77-2.22-5.1-.98-3.07 1.14-7.22 2.72-11.55 2.27-9.02-.94-15.44-10.35-16.03-4.7-.58 5.66 2.25 17.09 14.6 18.37Z"/><mask id="g" width="34" height="21" x="497" y="156" maskUnits="userSpaceOnUse" style="mask-type:alpha"><path fill="#fff" d="M512.16 176.88c12.35 1.29 17.48-9.3 18.07-14.96.3-2.94-1.76-2.22-5.1-.99-3.07 1.15-7.22 2.73-11.55 2.28-9.02-.94-15.43-10.35-16.02-4.7-.6 5.66 2.25 17.09 14.6 18.37Z"/></mask><g mask="url(#g)"><path fill="#F94040" d="M511.14 189.75a10.96 10.96 0 0 0 5.54-20.94c-1.01-.44-2.5 3.04-3.66 2.92-1.09-.11-1.75-3.84-2.77-3.65a10.96 10.96 0 0 0 .89 21.67Z"/></g><path fill="#FF9D0B" d="M544.54 155.75a4.1 4.1 0 1 0 .85-8.17 4.1 4.1 0 0 0-.85 8.17ZM486.1 149.67a4.1 4.1 0 1 0 .85-8.17 4.1 4.1 0 0 0-.85 8.17ZM476.26 162.61a6.6 6.6 0 0 0-5.37 1.82 7.56 7.56 0 0 0-2.16 4.55 8.98 8.98 0 0 0-2.4-.64 6.65 6.65 0 0 0-5.17 1.59 7.32 7.32 0 0 0-2.63 5.8c.05 1.04.29 2 .71 2.89a6.71 6.71 0 0 0-2.61 3.3 7.42 7.42 0 0 0 .37 6.06 6.6 6.6 0 0 0-1.12 6.26c.99 3.05 3.95 5.68 9.91 8.8a82.65 82.65 0 0 0 7.17 3.29 56.02 56.02 0 0 0 13.53 3.43c7.36.76 12.86-.94 16.35-5.07 5.63-6.65 5.61-13.26-.04-20.23-3.13-3.85-4.92-9.24-5.29-10.42-.62-3.45-2.81-7.44-7.1-7.88a7.2 7.2 0 0 0-6.1 2.49 16.6 16.6 0 0 0-3.24-3.91 9.37 9.37 0 0 0-4.81-2.13Zm-.52 5.03c.64.07 1.39.42 2.2 1.06 2.5 1.98 6.75 11.4 8.28 15.06a3.08 3.08 0 0 0 2.52 1.93c1.94.2 3.66-1.56.64-4.35-4.54-4.2-2.19-10.04.2-10.16h.3c2.14.22 2.7 4 2.7 4s2.04 7.23 6.3 12.47c4.24 5.23 4.1 9.06.1 13.78-2.71 3.2-7.34 3.78-11.96 3.3-4.8-.5-9.6-2.13-12.29-3.14-.13-.05-16.4-6.53-13.86-10.34.43-.64 1.04-.85 1.78-.77 3 .31 7.97 5.33 10.3 5.57.53.05.92-.13 1.13-.66 1.37-3.47-14.62-6.65-12.72-11.69.33-.89 1.02-1.2 1.94-1.1 3.95.41 12.1 8.29 13.95 8.48.14.02.25-.02.31-.1 1.1-1.4.69-2.5-5.46-7.16s-10.5-7.53-7.59-10.1c.34-.3.78-.4 1.3-.35 3.98.41 12.5 9.96 12.5 9.96s2.27 2.9 3.8 3.07c.36.03.68-.07.91-.4 1.29-1.72-9.04-11.38-9.3-14.95-.19-2.42.67-3.55 2.01-3.4Z"/><path fill="#FFD21E" d="M498.98 201.42c3.99-4.7 4.14-8.54-.11-13.78-4.25-5.23-6.3-12.46-6.3-12.46s-.6-4.13-3-4c-2.38.12-4.73 5.96-.2 10.16 4.54 4.2-1.62 6.08-3.15 2.42-1.54-3.65-5.78-13.08-8.29-15.06-2.5-1.98-4.49-1.22-4.22 2.35.27 3.57 10.6 13.23 9.31 14.95-1.28 1.73-4.7-2.67-4.7-2.67s-10.9-12.2-13.81-9.62c-2.92 2.58 1.44 5.45 7.59 10.1 6.15 4.66 6.55 5.76 5.46 7.17-1.09 1.4-14.3-12.32-16.2-7.28-1.9 5.04 14.09 8.22 12.72 11.7-1.37 3.47-10.67-7.96-13.21-4.15-2.55 3.81 13.73 10.3 13.86 10.34 5.27 1.97 18.71 6.38 24.25-.17Z"/><path fill="#FF9D0B" d="M551.5 170.45a6.59 6.59 0 0 1 4.88 2.88 7.54 7.54 0 0 1 1.18 4.9c.88-.16 1.71-.21 2.48-.13a6.66 6.66 0 0 1 4.73 2.61 7.33 7.33 0 0 1 1.38 6.23c-.26 1-.7 1.88-1.29 2.68a6.7 6.7 0 0 1 1.88 3.76 7.42 7.42 0 0 1-1.62 5.86c.09.17.16.34.24.52.77 1.93.62 4-.43 5.84-1.6 2.78-5.04 4.74-11.5 6.56-4.03 1.13-7.67 1.74-7.7 1.74-5.26.8-9.95.99-13.95.57-7.36-.76-12.4-3.57-14.96-8.32-4.13-7.67-2.75-14.14 4.21-19.8 3.86-3.12 6.72-8.03 7.32-9.1 1.33-3.25 4.3-6.7 8.58-6.25a7.2 7.2 0 0 1 5.46 3.69 16.54 16.54 0 0 1 3.97-3.16 9.36 9.36 0 0 1 5.14-1.08Zm-.52 5.03a4.5 4.5 0 0 0-2.37.58c-2.86 1.42-8.96 9.77-11.21 13.03a3.07 3.07 0 0 1-2.87 1.37c-1.94-.2-3.25-2.29.28-4.4 5.3-3.16 4.2-9.36 1.9-9.98l-.3-.06c-2.14-.22-3.47 3.37-3.47 3.37s-3.48 6.65-8.72 10.9c-5.24 4.24-5.88 8.02-2.95 13.46 2 3.7 6.4 5.21 11.03 5.7 4.8.5 9.84-.12 12.67-.54.14-.03 17.4-3.02 15.7-7.27-.3-.71-.85-1.05-1.6-1.12-2.98-.31-8.89 3.57-11.22 3.33-.53-.06-.87-.32-.97-.88-.62-3.68 15.68-3.5 14.86-8.82-.14-.94-.75-1.38-1.67-1.47-3.95-.41-13.54 5.61-15.4 5.42-.14-.01-.24-.07-.29-.16-.77-1.6-.15-2.6 6.83-5.89 6.97-3.29 11.83-5.2 9.5-8.32-.26-.36-.67-.55-1.2-.6-3.98-.42-14.28 7.17-14.28 7.17s-2.82 2.38-4.36 2.21a.94.94 0 0 1-.8-.57c-.9-1.95 11.2-9.28 12.19-12.72.67-2.33.07-3.6-1.28-3.75Z"/><path fill="#FFD21E" d="M521.27 203.75c-2.93-5.44-2.3-9.22 2.95-13.47 5.24-4.24 8.72-10.9 8.72-10.9s1.45-3.91 3.76-3.3c2.31.62 3.41 6.82-1.9 9.99-5.3 3.17.34 6.28 2.6 3.02 2.25-3.26 8.35-11.61 11.2-13.03 2.86-1.42 4.65-.28 3.65 3.16-1 3.44-13.09 10.77-12.19 12.72.9 1.95 5.16-1.64 5.16-1.64s13.17-9.7 15.5-6.57c2.31 3.12-2.54 5.03-9.52 8.32-6.98 3.3-7.6 4.29-6.82 5.89.78 1.6 16.54-9.1 17.36-3.79.82 5.32-15.48 5.14-14.86 8.82.63 3.68 12.08-5.58 13.78-1.33 1.7 4.25-15.55 7.24-15.7 7.27-5.56.84-19.62 2.38-23.7-5.16Z"/></g><g clip-path="url(#h)"><path fill="#fff" d="M376.24 80.7c1.51 2.47 1.91 5.35 1.21 8.1-.49 1.99-1.46 3.66-2.74 5.25a31.83 31.83 0 0 1-6.16 5.48 83.13 83.13 0 0 1-8.62 5.31A59.02 59.02 0 0 1 346.3 110c-6.68 1.53-12.79 1.2-17.77-1.93a51.25 51.25 0 0 1-12.5 2.77c-3.24 4.9-8.64 7.73-15.32 9.12-4.68.99-9.47 1.2-14.56 1a83.8 83.8 0 0 1-10.03-1.23 31.42 31.42 0 0 1-7.88-2.41 13.25 13.25 0 0 1-4.7-3.63 10.46 10.46 0 0 1-2.25-7.87 10.8 10.8 0 0 1-1.93-6.86c.05-1.24.32-2.43.75-3.54a10.96 10.96 0 0 1 .3-11.02 10.4 10.4 0 0 1 2.93-3.31 52.75 52.75 0 0 1 85.82-59.1 53.25 53.25 0 0 1 7.64 10.27 52.53 52.53 0 0 1 6.87 26.76c1.47.23 2.94.82 4.42 1.86a10.98 10.98 0 0 1 4.88 9.9 11 11 0 0 1 2.16 2.9 10.87 10.87 0 0 1 1.12 7.03Z"/><path fill="#FFD21E" d="M319.9 101.31a43.9 43.9 0 1 0-18.74-85.79 43.9 43.9 0 0 0 18.74 85.8Z"/><path fill="#FF9D0B" d="M353.43 49.05a43.9 43.9 0 1 0-85.79 18.74 43.9 43.9 0 0 0 85.79-18.74ZM262.7 68.87a48.96 48.96 0 1 1 95.67-20.9 48.96 48.96 0 0 1-95.67 20.9Z"/><path fill="#3A3B45" d="M321.92 43.7c1.7.21 3.03 3.3 4.43 2.11a6.32 6.32 0 1 0-8.9-.72c1.06 1.25 2.96-1.58 4.47-1.4ZM292.84 50.05c-1.45.9-1.37 4.27-3.14 3.77a6.32 6.32 0 1 1 7.79-4.37c-.45 1.58-3.35-.2-4.65.6ZM314.15 76.44c12.13-2.65 13.68-14.33 12.47-19.88-.63-2.89-2.38-1.56-5.15.66-2.56 2.05-6 4.86-10.26 5.79-8.86 1.93-17.9-5-16.69.56 1.22 5.55 7.5 15.52 19.63 12.87Z"/><mask id="i" width="33" height="23" x="294" y="54" maskUnits="userSpaceOnUse" style="mask-type:alpha"><path fill="#fff" d="M314.15 76.43c12.13-2.65 13.68-14.32 12.47-19.87-.63-2.89-2.38-1.56-5.15.66-2.56 2.05-6 4.86-10.26 5.79-8.86 1.93-17.9-5-16.69.56 1.22 5.55 7.5 15.51 19.63 12.86Z"/></mask><g mask="url(#i)"><path fill="#F94040" d="M317.2 88.97a10.96 10.96 0 0 0-1.3-21.61c-1.1-.1-1.42 3.67-2.56 3.92-1.06.23-2.87-3.1-3.77-2.6a10.96 10.96 0 0 0 7.64 20.3Z"/></g><path fill="#FF9D0B" d="M338.26 46.22a4.1 4.1 0 1 0-1.75-8.03 4.1 4.1 0 0 0 1.75 8.03ZM280.86 58.75a4.1 4.1 0 1 0-1.75-8.02 4.1 4.1 0 0 0 1.75 8.02ZM275.57 74.14a6.6 6.6 0 0 0-4.52 3.4 7.54 7.54 0 0 0-.63 5 8.97 8.97 0 0 0-2.48.14 6.65 6.65 0 0 0-4.41 3.13 7.32 7.32 0 0 0-.67 6.34c.36.97.9 1.8 1.57 2.52a6.7 6.7 0 0 0-1.45 3.95 7.42 7.42 0 0 0 2.26 5.64l-.18.55a6.6 6.6 0 0 0 1.08 5.75c1.9 2.58 5.53 4.15 12.16 5.24 4.13.67 7.81.88 7.85.88 5.3.2 9.99-.13 13.92-.99 7.23-1.57 11.92-4.92 13.94-9.93 3.26-8.08 1.17-14.36-6.39-19.2-4.18-2.68-7.56-7.24-8.28-8.24-1.68-3.08-5-6.18-9.22-5.26a7.2 7.2 0 0 0-5.01 4.27 16.58 16.58 0 0 0-4.3-2.69 9.36 9.36 0 0 0-5.24-.5Zm1.08 4.93a4.51 4.51 0 0 1 2.43.32c3 1.1 9.98 8.72 12.58 11.7.88 1 2.05 1.26 3 1.05 1.9-.42 2.98-2.63-.76-4.34-5.62-2.56-5.22-8.84-3-9.71l.3-.09c2.1-.46 3.81 2.96 3.81 2.96s4.2 6.22 9.88 9.86c5.68 3.64 6.74 7.32 4.43 13.05-1.57 3.9-5.78 5.9-10.33 6.89-4.71 1.03-9.79.98-12.65.87-.14 0-17.63-1.06-16.4-5.48.2-.74.72-1.13 1.45-1.3 2.94-.63 9.23 2.57 11.53 2.07.51-.11.83-.4.86-.97.21-3.73-15.97-1.74-15.75-7.12.04-.95.6-1.46 1.5-1.65 3.88-.85 14.09 4.07 15.91 3.68.14-.03.23-.1.27-.2.59-1.67-.14-2.6-7.44-5.09-7.3-2.5-12.33-3.85-10.37-7.21.22-.4.61-.63 1.12-.74 3.92-.85 15 5.54 15 5.54s3.06 2.05 4.57 1.72a.94.94 0 0 0 .74-.65c.68-2.04-12.16-7.98-13.53-11.29-.93-2.24-.47-3.58.85-3.87Z"/><path fill="#FFD21E" d="M309.32 103.87c2.31-5.73 1.25-9.41-4.43-13.05-5.67-3.64-9.88-9.86-9.88-9.86s-1.87-3.74-4.1-2.87c-2.23.87-2.63 7.15 3 9.71 5.62 2.56.36 6.29-2.25 3.3-2.6-3-9.59-10.62-12.58-11.71-3-1.1-4.65.24-3.28 3.55 1.37 3.3 14.2 9.25 13.53 11.29-.68 2.04-5.3-1.07-5.3-1.07s-14.17-8.17-16.13-4.8c-1.96 3.36 3.07 4.72 10.37 7.22 7.3 2.49 8.03 3.41 7.44 5.09-.6 1.67-17.45-7.22-17.68-1.84-.22 5.38 15.96 3.4 15.75 7.12-.21 3.72-12.62-4.21-13.84.2-1.23 4.42 16.26 5.47 16.4 5.48 5.62.22 19.77.2 22.98-7.76Z"/><path fill="#FF9D0B" d="M349.48 58c2-.44 3.97-.01 5.54 1.2.97.76 2.1 2.07 2.65 4.28a8.98 8.98 0 0 1 2.31-.9 6.65 6.65 0 0 1 5.32 1 7.32 7.32 0 0 1 3.25 5.49c.08 1.03-.06 2-.38 2.94a6.7 6.7 0 0 1 2.97 2.99 7.42 7.42 0 0 1 .3 6.07 6.6 6.6 0 0 1 1.8 6.1c-.64 3.13-3.29 6.08-8.86 9.83a82.38 82.38 0 0 1-6.77 4.07 55.95 55.95 0 0 1-13.06 4.91c-7.23 1.58-12.88.5-16.81-3.22-6.33-5.98-7.05-12.55-2.2-20.1 2.68-4.18 3.85-9.74 4.09-10.95.24-3.5 1.97-7.7 6.18-8.62a7.2 7.2 0 0 1 6.34 1.8c.9-1.83 1.84-3.32 2.79-4.25a9.36 9.36 0 0 1 4.54-2.64Zm1.08 4.93c-.63.14-1.34.58-2.07 1.3-2.27 2.25-5.44 12.09-6.56 15.9a3.07 3.07 0 0 1-2.3 2.19c-1.9.42-3.8-1.15-1.1-4.26 4.04-4.67 1.05-10.22-1.34-10.08-.1 0-.2.02-.3.04-2.1.46-2.23 4.28-2.23 4.28s-1.23 7.4-4.87 13.08-3.07 9.47 1.42 13.71c3.06 2.9 7.72 2.95 12.26 1.96 4.71-1.03 9.3-3.2 11.86-4.49.13-.06 15.58-8.3 12.63-11.81-.5-.6-1.13-.73-1.86-.57-2.94.64-7.33 6.18-9.62 6.68-.52.11-.93-.03-1.2-.53-1.74-3.3 13.8-8.24 11.35-13.03-.43-.85-1.15-1.08-2.05-.88-3.88.85-11.1 9.58-12.92 9.98-.14.03-.25 0-.32-.07-1.24-1.27-.96-2.41 4.63-7.72 5.6-5.31 9.6-8.65 6.42-10.89-.37-.26-.82-.31-1.33-.2-3.91.86-11.32 11.3-11.32 11.3s-1.93 3.13-3.44 3.46a.94.94 0 0 1-.94-.29c-1.47-1.57 7.72-12.32 7.59-15.9-.09-2.42-1.06-3.45-2.39-3.16Z"/><path fill="#FFD21E" d="M331.2 99.09c-4.48-4.24-5.05-8.03-1.41-13.71 3.64-5.67 4.87-13.08 4.87-13.08s.15-4.18 2.53-4.32c2.4-.14 5.38 5.4 1.33 10.08-4.04 4.67 2.3 5.86 3.41 2.06 1.12-3.8 4.3-13.65 6.56-15.9 2.27-2.24 4.33-1.7 4.46 1.87.13 3.58-9.06 14.33-7.6 15.9 1.47 1.57 4.4-3.18 4.4-3.18s9.46-13.33 12.64-11.1c3.19 2.25-.82 5.58-6.42 10.9-5.6 5.3-5.87 6.44-4.63 7.72 1.24 1.28 12.85-13.83 15.3-9.04 2.44 4.8-13.1 9.74-11.35 13.04 1.75 3.3 9.72-9.09 12.67-5.59 2.95 3.5-12.5 11.76-12.63 11.82-5.02 2.54-17.89 8.42-24.12 2.53Z"/></g><g clip-path="url(#j)"><path fill="#fff" d="M270.86 157.94c-.43 2.85-2 5.32-4.3 6.96a13.35 13.35 0 0 1-5.48 2.24c-2.4.45-5.12.47-8.24.22a82.92 82.92 0 0 1-10.01-1.5 58.94 58.94 0 0 1-13.75-4.87c-6.09-3.15-10.55-7.34-12.32-12.95a50.96 50.96 0 0 1-11.34-5.95c-5.65 1.66-11.59.33-17.6-2.91a59.14 59.14 0 0 1-11.77-8.63 83.65 83.65 0 0 1-6.86-7.42 31.43 31.43 0 0 1-4.46-6.93 13.25 13.25 0 0 1-1.25-5.8c.08-2.82 1.23-5.5 3.35-7.47a10.8 10.8 0 0 1 2.96-6.48c.84-.91 1.81-1.65 2.86-2.22a10.95 10.95 0 0 1 7.35-8.22 10.4 10.4 0 0 1 4.37-.64 52.75 52.75 0 1 1 90.88 47.88 10.45 10.45 0 0 1 2.18 4.28 10.98 10.98 0 0 1-2.66 10.7 11 11 0 0 1-.22 3.61 10.88 10.88 0 0 1-3.69 6.1Z"/><path fill="#FFD21E" d="M214.52 137.33a43.9 43.9 0 1 0 41.05-77.63 43.9 43.9 0 0 0-41.05 77.63Z"/><path fill="#FF9D0B" d="M273.86 119.04a43.9 43.9 0 1 0-77.63-41.05 43.9 43.9 0 0 0 77.63 41.05Zm-82.1-43.41a48.96 48.96 0 1 1 86.57 45.77 48.96 48.96 0 0 1-86.56-45.77Z"/><path fill="#3A3B45" d="M253.24 94.62c1.16 1.25.18 4.48 2.02 4.47a6.32 6.32 0 1 0-6.33-6.3c0 1.65 3.28.7 4.31 1.83ZM226.93 80.7c-1.69-.25-3.8 2.38-4.83.86a6.32 6.32 0 1 1 8.77 1.68c-1.36.93-2.43-2.31-3.94-2.54ZM226.18 114.6c10.98 5.81 19.7-2.1 22.36-7.13 1.38-2.61-.81-2.72-4.36-2.81-3.28-.09-7.72-.17-11.57-2.2-8.02-4.24-10.46-15.37-13.12-10.34-2.65 5.02-4.28 16.68 6.7 22.49Z"/><mask id="k" width="32" height="27" x="217" y="90" maskUnits="userSpaceOnUse" style="mask-type:alpha"><path fill="#fff" d="M226.18 114.6c10.98 5.81 19.7-2.1 22.35-7.13 1.38-2.61-.8-2.72-4.36-2.81-3.27-.09-7.71-.17-11.57-2.2-8.02-4.24-10.45-15.37-13.1-10.34-2.67 5.02-4.3 16.68 6.68 22.49Z"/></mask><g mask="url(#k)"><path fill="#F94040" d="M220.43 126.16a10.96 10.96 0 0 0 12.95-17.35c-.77-.8-3.46 1.88-4.49 1.34-.96-.5-.19-4.22-1.2-4.42a10.96 10.96 0 0 0-7.26 20.43Z"/></g><path fill="#FF9D0B" d="M264.1 107.09a4.1 4.1 0 1 0 3.84-7.26 4.1 4.1 0 0 0-3.84 7.26ZM212.16 79.63a4.1 4.1 0 1 0 3.84-7.27 4.1 4.1 0 0 0-3.84 7.27ZM198.2 87.96a6.6 6.6 0 0 0-5.66-.31 7.55 7.55 0 0 0-3.7 3.4 8.95 8.95 0 0 0-2-1.48 6.65 6.65 0 0 0-5.38-.46 7.32 7.32 0 0 0-4.6 4.41 7.37 7.37 0 0 0-.43 2.94 6.7 6.7 0 0 0-3.65 2.08 7.43 7.43 0 0 0-1.92 5.77l-.49.3a6.6 6.6 0 0 0-2.88 5.09c-.23 3.2 1.54 6.74 5.9 11.85 2.72 3.18 5.4 5.71 5.43 5.73a56.02 56.02 0 0 0 11.27 8.24c6.54 3.45 12.28 3.93 17.06 1.4 7.7-4.06 10.16-10.21 7.5-18.78-1.46-4.75-1.1-10.42-1-11.65.7-3.43.16-7.94-3.65-9.96a7.2 7.2 0 0 0-6.59.03c-.38-2-.88-3.68-1.54-4.83-1-1.74-2.23-3-3.68-3.77Zm-2.37 4.47c.57.3 1.14.91 1.65 1.8 1.58 2.78 2 13.1 2.06 17.07a3.07 3.07 0 0 0 1.62 2.73c1.72.91 3.97-.09 2.22-3.8-2.65-5.59 1.72-10.13 3.98-9.35.1.03.2.07.28.12 1.9 1 1 4.72 1 4.72s-.8 7.46 1.19 13.9c1.99 6.45.42 9.95-5.04 12.83-3.72 1.97-8.23.78-12.34-1.4-4.26-2.26-8.1-5.57-10.22-7.5-.1-.1-12.79-12.18-9-14.77.63-.43 1.28-.4 1.94-.05 2.66 1.4 5.4 7.92 7.48 9.02.47.25.9.22 1.29-.2 2.56-2.7-11.09-11.63-7.44-15.59.64-.7 1.4-.72 2.2-.3 3.52 1.86 8.14 12.2 9.79 13.08.13.07.23.08.32.03 1.54-.9 1.58-2.07-2.39-8.69-3.96-6.62-6.94-10.9-3.27-12.2.43-.16.87-.09 1.34.16 3.54 1.87 7.88 13.9 7.88 13.9s1.01 3.55 2.38 4.27c.31.17.65.19.99-.02 1.83-1.12-4.14-13.94-3.05-17.35.73-2.32 1.94-3.04 3.14-2.41Z"/><path fill="#FFD21E" d="M204.79 132.45c5.46-2.88 7.03-6.38 5.04-12.82-1.99-6.45-1.19-13.91-1.19-13.91s.98-4.07-1.28-4.84c-2.27-.78-6.63 3.76-3.98 9.35 2.64 5.59-3.78 5.04-3.84 1.07-.06-3.96-.48-14.3-2.06-17.06-1.58-2.78-3.7-2.82-4.8.6-1.08 3.4 4.9 16.23 3.06 17.35-1.83 1.12-3.37-4.24-3.37-4.24s-5.55-15.38-9.22-14.08c-3.67 1.3-.7 5.6 3.27 12.21 3.97 6.62 3.93 7.79 2.4 8.69-1.54.9-8.68-16.77-12.32-12.8-3.64 3.96 10 12.88 7.44 15.59-2.57 2.71-6.93-11.36-10.71-8.78-3.79 2.59 8.9 14.68 9 14.77 4.15 3.8 14.98 12.9 22.56 8.9Z"/><path fill="#FF9D0B" d="M265.07 123.32a6.6 6.6 0 0 1 3.45 4.5c.26 1.2.28 2.93-.73 4.98.87.18 1.67.44 2.35.8a6.66 6.66 0 0 1 3.41 4.2c.6 2.3.23 4.53-1.05 6.29a7.4 7.4 0 0 1-2.2 2 6.7 6.7 0 0 1 .34 4.2 7.42 7.42 0 0 1-3.68 4.82 6.6 6.6 0 0 1-2.56 5.82c-2.51 2-6.43 2.53-13.12 1.8-4.15-.45-7.76-1.25-7.8-1.25a56 56 0 0 1-13.14-4.68c-6.54-3.46-10.16-7.94-10.77-13.31-.97-8.65 2.72-14.14 11.3-16.78 4.75-1.46 9.23-4.95 10.19-5.72 2.44-2.52 6.48-4.61 10.29-2.6a7.2 7.2 0 0 1 3.68 5.46 16.6 16.6 0 0 1 4.87-1.44 9.35 9.35 0 0 1 5.18.91Zm-2.36 4.47a4.5 4.5 0 0 0-2.42-.35c-3.18.26-11.95 5.73-15.26 7.91-1.11.73-2.3.66-3.17.2-1.72-.9-2.16-3.33 1.9-3.97 6.1-.96 7.4-7.12 5.48-8.56a2.05 2.05 0 0 0-.25-.16c-1.9-1-4.47 1.83-4.47 1.83s-5.72 4.86-12.16 6.85c-6.45 1.98-8.46 5.25-7.77 11.38.48 4.19 4 7.24 8.11 9.41 4.27 2.26 9.17 3.57 11.95 4.23.14.03 17.27 3.7 17.28-.88 0-.77-.4-1.29-1.06-1.64-2.65-1.4-9.58 0-11.66-1.1-.46-.25-.69-.62-.56-1.17.79-3.65 15.85 2.6 17.07-2.64.22-.92-.18-1.56-1-1.99-3.51-1.85-14.66.16-16.31-.72-.13-.06-.2-.15-.2-.25-.13-1.78.82-2.47 8.52-2.92 7.7-.44 12.92-.4 11.93-4.17-.11-.43-.42-.76-.88-1-3.55-1.88-15.94 1.31-15.94 1.31s-3.5 1.16-4.87.43a.94.94 0 0 1-.53-.83c-.1-2.14 13.85-4.43 16.06-7.25 1.5-1.9 1.41-3.32.21-3.95Z"/><path fill="#FFD21E" d="M224.6 142.93c-.7-6.14 1.31-9.4 7.76-11.4 6.44-1.97 12.16-6.84 12.16-6.84s2.8-3.1 4.72-1.66c1.92 1.43.62 7.6-5.48 8.55-6.1.96-2.04 5.96 1.27 3.77 3.3-2.18 12.08-7.65 15.27-7.9 3.18-.25 4.4 1.48 2.2 4.3-2.21 2.82-16.17 5.1-16.06 7.25.1 2.14 5.4.4 5.4.4s15.84-4.08 16.82-.32c.99 3.77-4.23 3.73-11.93 4.18-7.7.44-8.65 1.14-8.52 2.9.12 1.78 18.74-2.26 17.51 2.98-1.22 5.24-16.28-1.01-17.07 2.63-.8 3.65 13.29-.67 13.28 3.91 0 4.58-17.14.91-17.28.88-5.47-1.3-19.1-5.11-20.06-13.63Z"/></g><g clip-path="url(#l)"><path fill="#fff" d="M279.94 140.46c2.77.8 5.01 2.67 6.35 5.16.98 1.8 1.4 3.69 1.52 5.73.13 2.44-.2 5.13-.85 8.2a83.2 83.2 0 0 1-2.77 9.73 59 59 0 0 1-6.6 13.01c-3.9 5.63-8.62 9.52-14.41 10.56a51.1 51.1 0 0 1-7.36 10.49c.92 5.8-1.16 11.53-5.15 17.06a59.14 59.14 0 0 1-10.06 10.57 83.83 83.83 0 0 1-8.24 5.86 31.44 31.44 0 0 1-7.44 3.53c-1.97.58-3.89.82-5.92.5a10.46 10.46 0 0 1-6.97-4.28 10.8 10.8 0 0 1-6.05-3.77 11 11 0 0 1-1.84-3.12 10.96 10.96 0 0 1-7.21-8.34 10.4 10.4 0 0 1-.08-4.42A52.75 52.75 0 1 1 256 132.95a10.44 10.44 0 0 1 4.53-1.61 10.98 10.98 0 0 1 10.28 4c1.18.03 2.39.25 3.55.69 2.56.95 4.38 2.52 5.58 4.43Z"/><path fill="#FFD21E" d="M252.27 193.69a43.9 43.9 0 1 0-71.72-50.67 43.9 43.9 0 0 0 71.72 50.67Z"/><path fill="#FF9D0B" d="M241.74 132.5a43.9 43.9 0 1 0-50.67 71.72 43.9 43.9 0 0 0 50.67-71.72Zm-53.58 75.84a48.96 48.96 0 1 1 56.5-79.97 48.96 48.96 0 0 1-56.5 79.97Z"/><path fill="#3A3B45" d="M214.88 149.8c1.4-.98 4.47.4 4.7-1.42a6.32 6.32 0 1 0-7.07 5.47c1.64.21 1.12-3.16 2.37-4.04ZM197.7 174.12c-.46 1.64 1.88 4.08.23 4.9a6.32 6.32 0 1 1 2.8-8.48c.74 1.47-2.6 2.11-3.02 3.58ZM231.24 179.21c7.16-10.14.43-19.8-4.22-23.08-2.4-1.7-2.8.45-3.34 3.96-.51 3.24-1.16 7.63-3.67 11.2-5.24 7.4-16.58 8.39-11.94 11.67 4.65 3.28 16 6.4 23.17-3.75Z"/><mask id="m" width="29" height="32" x="206" y="155" maskUnits="userSpaceOnUse" style="mask-type:alpha"><path fill="#fff" d="M231.23 179.21c7.17-10.14.44-19.8-4.2-23.08-2.42-1.7-2.8.45-3.36 3.96-.5 3.24-1.15 7.63-3.67 11.2-5.23 7.4-16.58 8.4-11.93 11.67 4.64 3.28 16 6.4 23.16-3.75Z"/></mask><g mask="url(#m)"><path fill="#F94040" d="M241.95 186.4a10.96 10.96 0 0 0-15.55-15.08c-.88.67 1.43 3.68.76 4.63-.63.89-4.21-.36-4.54.62a10.96 10.96 0 0 0 19.33 9.83Z"/></g><path fill="#FF9D0B" d="M228.64 140.64a4.1 4.1 0 1 0-6.7-4.74 4.1 4.1 0 0 0 6.7 4.74ZM194.74 188.63a4.1 4.1 0 1 0-6.7-4.74 4.1 4.1 0 0 0 6.7 4.74ZM201.22 203.55a6.6 6.6 0 0 0-1.04 5.57 7.55 7.55 0 0 0 2.9 4.1 8.93 8.93 0 0 0-1.72 1.79 6.65 6.65 0 0 0-1.15 5.28 7.32 7.32 0 0 0 3.78 5.14c.92.47 1.87.72 2.86.8a6.7 6.7 0 0 0 1.6 3.88c.76.91 2.53 2.54 5.47 2.64a6.6 6.6 0 0 0 4.91 4.04c3.15.64 6.89-.66 12.52-4.33 3.5-2.3 6.36-4.63 6.38-4.65a56.02 56.02 0 0 0 9.61-10.12c4.27-6.04 5.47-11.67 3.58-16.74-3.04-8.16-8.82-11.38-17.66-9.86-4.9.85-10.47-.23-11.68-.49-3.31-1.14-7.86-1.18-10.35 2.34a7.2 7.2 0 0 0-.81 6.53c-2.03.13-3.77.42-5 .92a9.36 9.36 0 0 0-4.2 3.16Zm4.13 2.91a4.5 4.5 0 0 1 2-1.4c2.95-1.21 13.25-.3 17.19.15a3.07 3.07 0 0 0 2.92-1.26c1.12-1.59.42-3.95-3.5-2.68-5.87 1.9-9.81-3-8.76-5.15l.16-.26c1.24-1.76 4.81-.4 4.81-.4s7.3 1.76 13.95.61c6.64-1.14 9.91.87 12.07 6.65 1.47 3.94-.3 8.25-2.98 12.05-2.78 3.94-6.56 7.33-8.74 9.18-.11.1-13.73 11.12-15.8 7.03-.35-.68-.24-1.32.2-1.93 1.73-2.46 8.54-4.34 9.9-6.26.3-.43.33-.86-.03-1.3-2.36-2.9-12.96 9.5-16.42 5.37-.61-.73-.54-1.48-.01-2.23 2.3-3.24 13.14-6.5 14.22-8.02.09-.12.11-.22.07-.32-.7-1.64-1.85-1.82-8.92 1.26s-11.7 5.48-12.53 1.67c-.1-.43.03-.87.33-1.3 2.32-3.27 14.81-6.03 14.81-6.03s3.65-.55 4.54-1.81c.2-.3.26-.62.1-.99-.88-1.96-14.36 2.32-17.6.8-2.2-1.02-2.77-2.32-1.98-3.42Z"/><path fill="#FFD21E" d="M246.18 202.72c-2.16-5.78-5.42-7.8-12.07-6.65-6.65 1.15-13.95-.6-13.95-.6s-3.9-1.5-4.96.65c-1.06 2.14 2.88 7.05 8.76 5.15 5.88-1.9 4.51 4.39.57 3.94-3.93-.45-14.24-1.36-17.19-.15-2.95 1.22-3.26 3.32-.02 4.83 3.25 1.52 16.73-2.76 17.6-.8.88 1.96-4.63 2.8-4.63 2.8s-15.97 3.53-15.14 7.34c.82 3.8 5.45 1.4 12.52-1.68 7.07-3.09 8.23-2.9 8.92-1.26.7 1.64-17.74 6.45-14.28 10.57 3.47 4.12 14.07-8.27 16.43-5.37 2.35 2.9-12.16 5.41-10.08 9.5 2.08 4.08 15.7-6.95 15.8-7.04 4.3-3.63 14.72-13.2 11.72-21.23Z"/><path fill="#FF9D0B" d="M244.87 141.76a6.59 6.59 0 0 1 4.9-2.84c1.22-.1 2.94.1 4.84 1.36.3-.84.66-1.6 1.1-2.22a6.65 6.65 0 0 1 4.6-2.85c2.36-.3 4.52.36 6.1 1.85a7.4 7.4 0 0 1 1.7 2.43 6.72 6.72 0 0 1 4.2.2 7.42 7.42 0 0 1 4.32 4.28l.58.05a6.59 6.59 0 0 1 4.87 3.23c1.65 2.75 1.68 6.71.1 13.24-.99 4.07-2.24 7.54-2.25 7.57-1.87 4.97-4 9.16-6.32 12.44-4.27 6.05-9.18 9.06-14.58 8.97-8.71-.14-13.68-4.5-15.2-13.35-.84-4.9-3.72-9.79-4.37-10.84-2.18-2.74-3.73-7.02-1.25-10.54a7.21 7.21 0 0 1 5.89-2.95 16.54 16.54 0 0 1-.8-5.01c.1-2 .62-3.68 1.56-5.02Zm4.12 2.92a4.5 4.5 0 0 0-.65 2.35c-.16 3.19 4.14 12.6 5.88 16.15.59 1.2.36 2.37-.2 3.17-1.13 1.6-3.6 1.72-3.7-2.39-.17-6.18-6.12-8.25-7.78-6.54-.08.08-.14.16-.2.24-1.24 1.75 1.24 4.66 1.24 4.66s4.1 6.3 5.23 12.94c1.15 6.65 4.13 9.06 10.3 9.16 4.2.07 7.69-3.03 10.37-6.83 2.78-3.94 4.71-8.63 5.73-11.31.05-.13 5.88-16.65 1.34-17.25-.76-.1-1.33.23-1.75.84-1.74 2.45-1.24 9.5-2.6 11.42-.3.43-.7.6-1.23.41-3.51-1.25 4.62-15.38-.42-17.27-.9-.34-1.58-.02-2.1.74-2.3 3.24-1.74 14.56-2.81 16.08-.09.12-.18.18-.28.17-1.78-.1-2.34-1.13-1.8-8.83.55-7.7 1.25-12.86-2.6-12.37-.45.06-.82.33-1.12.75-2.31 3.28-.74 15.98-.74 15.98s.7 3.62-.2 4.88c-.2.3-.49.46-.89.42-2.14-.17-2.61-14.3-5.12-16.85-1.7-1.73-3.11-1.83-3.9-.72Z"/><path fill="#FFD21E" d="M259.11 184.42c-6.17-.1-9.15-2.51-10.3-9.16-1.13-6.65-5.23-12.94-5.23-12.94s-2.7-3.18-1.04-4.9c1.67-1.71 7.61.36 7.78 6.54.17 6.18 5.65 2.78 3.9-.78-1.73-3.56-6.03-12.96-5.88-16.15.16-3.19 2.04-4.19 4.55-1.63 2.51 2.55 2.99 16.68 5.13 16.85 2.14.17 1.09-5.3 1.09-5.3s-2.01-16.23 1.85-16.73 3.15 4.68 2.6 12.37c-.54 7.7.03 8.72 1.8 8.83 1.77.1.15-18.88 5.2-17 5.03 1.9-3.1 16.03.41 17.28 3.52 1.26 1.04-13.26 5.59-12.67 4.54.6-1.3 17.11-1.35 17.25-1.99 5.26-7.52 18.28-16.1 18.14Z"/></g><g clip-path="url(#n)"><path fill="#fff" d="M199.56 278.82a10.47 10.47 0 0 1-5.13 6.38c-1.8 1-3.69 1.41-5.72 1.55-2.45.14-5.14-.18-8.21-.81a83.18 83.18 0 0 1-9.75-2.74 58.97 58.97 0 0 1-13.04-6.53c-5.64-3.87-9.55-8.58-10.62-14.37a50.94 50.94 0 0 1-10.52-7.31c-5.8.94-11.53-1.1-17.09-5.07a59.14 59.14 0 0 1-10.61-10.02 83.57 83.57 0 0 1-5.9-8.21 31.43 31.43 0 0 1-3.56-7.43 13.26 13.26 0 0 1-.52-5.92c.43-2.78 1.9-5.3 4.25-6.99a10.8 10.8 0 0 1 3.74-6.06c.94-.8 2-1.42 3.1-1.85.2-.5.4-1 .67-1.53a10.95 10.95 0 0 1 7.65-5.72 10.4 10.4 0 0 1 4.42-.1 52.75 52.75 0 1 1 84.25 58.77c.82 1.25 1.39 2.72 1.63 4.52a10.99 10.99 0 0 1-3.97 10.3c-.02 1.18-.24 2.38-.66 3.55a10.88 10.88 0 0 1-4.41 5.6Z"/><path fill="#FFD21E" d="M146.2 251.4a43.9 43.9 0 1 0 50.35-71.95 43.9 43.9 0 0 0-50.35 71.94Z"/><path fill="#FF9D0B" d="M207.35 240.6a43.9 43.9 0 1 0-71.95-50.35 43.9 43.9 0 0 0 71.95 50.34Zm-76.09-53.25a48.96 48.96 0 1 1 80.23 56.14 48.96 48.96 0 0 1-80.23-56.14Z"/><path fill="#3A3B45" d="M189.92 213.8c1 1.4-.38 4.48 1.45 4.7a6.32 6.32 0 1 0-5.5-7.04c-.2 1.64 3.16 1.1 4.05 2.35ZM165.53 196.74c-1.65-.45-4.07 1.9-4.9.25a6.32 6.32 0 1 1 8.5 2.76c-1.47.75-2.13-2.6-3.6-3ZM160.59 230.29c10.17 7.12 19.8.35 23.06-4.31 1.7-2.42-.46-2.8-3.97-3.33-3.25-.5-7.64-1.12-11.21-3.62-7.43-5.2-8.47-16.54-11.73-11.89-3.26 4.66-6.33 16.03 3.85 23.15Z"/><mask id="o" width="32" height="28" x="153" y="206" maskUnits="userSpaceOnUse" style="mask-type:alpha"><path fill="#fff" d="M160.6 230.29c10.16 7.12 19.8.35 23.06-4.31 1.7-2.42-.47-2.8-3.98-3.33-3.24-.5-7.64-1.12-11.2-3.62-7.44-5.2-8.48-16.55-11.74-11.89s-6.32 16.03 3.85 23.15Z"/></mask><g mask="url(#o)"><path fill="#F94040" d="M153.45 241.04a10.96 10.96 0 0 0 15-15.61c-.66-.89-3.66 1.44-4.61.77-.9-.63.33-4.21-.65-4.54a10.96 10.96 0 0 0-9.74 19.38Z"/></g><path fill="#FF9D0B" d="M199.15 227.53a4.1 4.1 0 1 0 4.7-6.73 4.1 4.1 0 0 0-4.7 6.73ZM151.01 193.84a4.1 4.1 0 1 0 4.71-6.73 4.1 4.1 0 0 0-4.7 6.73ZM136.12 200.38a6.59 6.59 0 0 0-5.58-1.01 7.55 7.55 0 0 0-4.09 2.92 8.96 8.96 0 0 0-1.79-1.72 6.65 6.65 0 0 0-5.3-1.12 7.32 7.32 0 0 0-5.1 3.8 7.37 7.37 0 0 0-.79 2.87 6.7 6.7 0 0 0-3.88 1.61 7.42 7.42 0 0 0-2.62 5.48l-.52.25a6.59 6.59 0 0 0-3.5 4.69c-.62 3.14.7 6.88 4.4 12.49 2.3 3.49 4.65 6.34 4.67 6.36a56.05 56.05 0 0 0 10.16 9.57c6.06 4.24 11.7 5.42 16.76 3.5 8.14-3.08 11.34-8.87 9.78-17.7-.87-4.9.19-10.47.44-11.68 1.12-3.32 1.14-7.87-2.39-10.34a7.2 7.2 0 0 0-6.54-.79 16.56 16.56 0 0 0-.93-4.99 9.36 9.36 0 0 0-3.18-4.19Zm-2.9 4.15a4.5 4.5 0 0 1 1.41 1.99c1.23 2.94.37 13.25-.07 17.2a3.08 3.08 0 0 0 1.27 2.9c1.6 1.12 3.95.4 2.67-3.5-1.93-5.87 2.96-9.83 5.11-8.78.1.04.18.1.26.15 1.76 1.23.42 4.8.42 4.8s-1.73 7.31-.55 13.96c1.17 6.64-.82 9.91-6.59 12.1-3.94 1.49-8.26-.25-12.07-2.92-3.95-2.77-7.36-6.53-9.22-8.7-.09-.12-11.17-13.68-7.1-15.78.69-.35 1.33-.24 1.94.19 2.46 1.72 4.38 8.53 6.3 9.88.43.3.86.32 1.3-.03 2.88-2.38-9.55-12.92-5.44-16.4.72-.62 1.47-.55 2.22-.02 3.26 2.28 6.56 13.11 8.09 14.18.12.09.22.11.32.07 1.63-.7 1.82-1.86-1.3-8.92-3.11-7.05-5.53-11.68-1.73-12.52.44-.1.88.03 1.3.33 3.28 2.3 6.1 14.78 6.1 14.78s.57 3.65 1.84 4.53c.29.2.62.26.98.1 1.96-.89-2.38-14.35-.88-17.6 1.02-2.2 2.31-2.77 3.42-2Z"/><path fill="#FFD21E" d="M137.15 245.35c5.78-2.19 7.77-5.46 6.6-12.1-1.18-6.65.54-13.95.54-13.95s1.47-3.92-.67-4.97c-2.16-1.05-7.05 2.92-5.12 8.8 1.94 5.86-4.37 4.52-3.93.58.43-3.94 1.3-14.25.07-17.2-1.23-2.94-3.33-3.24-4.83.01s2.83 16.71.88 17.6c-1.96.88-2.83-4.63-2.83-4.63s-3.6-15.95-7.4-15.1c-3.8.83-1.38 5.46 1.73 12.51 3.12 7.06 2.94 8.22 1.3 8.92-1.63.7-6.52-17.72-10.63-14.23-4.1 3.48 8.33 14.02 5.45 16.4-2.89 2.36-5.47-12.14-9.54-10.04-4.08 2.1 7 15.66 7.1 15.77 3.65 4.28 13.26 14.66 21.28 11.63Z"/><path fill="#FF9D0B" d="M198.1 243.76a6.6 6.6 0 0 1 2.87 4.89c.1 1.22-.1 2.94-1.35 4.85.85.29 1.6.65 2.23 1.09a6.65 6.65 0 0 1 2.87 4.59 7.32 7.32 0 0 1-1.82 6.1 7.38 7.38 0 0 1-2.43 1.72 6.71 6.71 0 0 1-.18 4.2 7.42 7.42 0 0 1-4.26 4.34 6.59 6.59 0 0 1-3.26 5.46c-2.73 1.66-6.7 1.7-13.23.15-4.07-.96-7.55-2.2-7.58-2.2a56.01 56.01 0 0 1-12.47-6.28c-6.06-4.24-9.1-9.13-9.04-14.54.1-8.7 4.46-13.7 13.3-15.25 4.88-.86 9.76-3.76 10.81-4.42 2.73-2.19 7-3.77 10.53-1.3a7.2 7.2 0 0 1 2.98 5.87c1.95-.56 3.69-.88 5-.82 2 .09 3.7.61 5.03 1.55Zm-2.9 4.14a4.51 4.51 0 0 0-2.35-.64c-3.19-.15-12.57 4.2-16.13 5.95a3.07 3.07 0 0 1-3.17-.2c-1.6-1.11-1.73-3.57 2.38-3.7 6.17-.2 8.22-6.15 6.5-7.81a2 2 0 0 0-.24-.2c-1.75-1.23-4.65 1.26-4.65 1.26s-6.28 4.13-12.92 5.3-9.04 4.16-9.11 10.33c-.05 4.21 3.06 7.67 6.87 10.34 3.96 2.77 8.66 4.68 11.34 5.68.13.05 16.68 5.81 17.25 1.27.1-.77-.23-1.33-.84-1.75-2.46-1.73-9.51-1.2-11.44-2.55-.43-.3-.6-.7-.41-1.23 1.23-3.52 15.4 4.55 17.27-.5.33-.89 0-1.57-.75-2.1-3.25-2.28-14.56-1.66-16.1-2.73-.11-.09-.17-.18-.17-.28.1-1.78 1.13-2.35 8.82-1.84 7.7.51 12.87 1.2 12.36-2.66-.06-.44-.33-.81-.75-1.11-3.29-2.3-15.98-.67-15.98-.67s-3.62.72-4.88-.17a.94.94 0 0 1-.43-.9c.16-2.13 14.3-2.67 16.83-5.2 1.72-1.7 1.82-3.11.7-3.89Z"/><path fill="#FFD21E" d="M155.5 258.2c.08-6.18 2.47-9.17 9.12-10.35 6.64-1.17 12.91-5.29 12.91-5.29s3.18-2.72 4.9-1.06c1.72 1.66-.33 7.61-6.5 7.8-6.18.2-2.76 5.67.79 3.91 3.55-1.76 12.94-6.1 16.13-5.95 3.19.14 4.2 2.01 1.65 4.54-2.54 2.52-16.67 3.05-16.83 5.2-.16 2.14 5.3 1.06 5.3 1.06s16.22-2.08 16.74 1.78c.51 3.86-4.66 3.17-12.36 2.66-7.7-.51-8.72.06-8.82 1.84-.1 1.77 18.88.06 17.02 5.11-1.87 5.05-16.04-3.02-17.28.5-1.24 3.52 13.27.98 12.7 5.53-.58 4.54-17.12-1.22-17.25-1.27-5.27-1.97-18.32-7.44-18.22-16.02Z"/></g><g clip-path="url(#p)"><path fill="#fff" d="M392.08 112.12a10.47 10.47 0 0 1 4.87 6.58c.5 2 .43 3.92.04 5.92a31.77 31.77 0 0 1-2.86 7.74 82.93 82.93 0 0 1-5.12 8.73c-2.92 4.16-6 7.83-9.63 10.95-5.18 4.48-10.72 7.07-16.6 6.63a51.11 51.11 0 0 1-9.74 8.32c-.55 5.85-4 10.88-9.24 15.24a59.17 59.17 0 0 1-12.38 7.73 84.16 84.16 0 0 1-9.44 3.62c-3 .92-5.66 1.48-8.09 1.56-2.05.06-3.96-.19-5.85-1a10.46 10.46 0 0 1-5.69-5.88 10.8 10.8 0 0 1-4.92-5.16c-.53-1.12-.86-2.3-1-3.48a10.95 10.95 0 0 1-4.9-9.88 10.4 10.4 0 0 1 1.03-4.3 52.75 52.75 0 0 1 48.04-92.46 53.3 53.3 0 0 1 7.08 2.93 52.89 52.89 0 0 1 23.1 22.96c1.42-.48 3-.66 4.8-.43a10.98 10.98 0 0 1 8.94 6.45c1.14.32 2.25.83 3.27 1.55a10.88 10.88 0 0 1 4.3 5.68Z"/><path fill="#FFD21E" d="M352.01 156.76a43.9 43.9 0 1 0-56.8-66.95 43.9 43.9 0 0 0 56.8 66.95Z"/><path fill="#FF9D0B" d="M357.09 94.88a43.9 43.9 0 1 0-66.96 56.81 43.9 43.9 0 0 0 66.96-56.8Zm-70.81 60.08a48.96 48.96 0 1 1 74.66-63.35 48.96 48.96 0 0 1-74.66 63.35Z"/><path fill="#3A3B45" d="M326.75 104.94c1.6-.6 4.23 1.5 4.9-.21a6.32 6.32 0 1 0-8.2 3.54c1.53.6 1.88-2.79 3.3-3.33ZM304.06 124.2c-.86 1.48.8 4.42-1 4.8a6.32 6.32 0 1 1 4.82-7.51c.35 1.6-3.05 1.4-3.82 2.71ZM335.25 137.5c9.47-8.04 5.36-19.08 1.68-23.41-1.9-2.25-2.82-.26-4.23 3-1.3 3.01-3.02 7.1-6.34 9.92-6.92 5.87-18.15 4-14.48 8.33 3.68 4.34 13.9 10.19 23.37 2.15Z"/><mask id="q" width="31" height="29" x="311" y="113" maskUnits="userSpaceOnUse" style="mask-type:alpha"><path fill="#fff" d="M335.26 137.5c9.47-8.03 5.36-19.07 1.68-23.4-1.91-2.26-2.82-.27-4.23 3-1.3 3-3.02 7.1-6.35 9.92-6.91 5.87-18.15 4-14.47 8.33 3.68 4.33 13.9 10.18 23.37 2.15Z"/></mask><g mask="url(#q)"><path fill="#F94040" d="M343.84 147.13a10.96 10.96 0 0 0-11.3-18.48c-1.01.43.47 3.91-.42 4.67-.83.7-3.98-1.4-4.55-.53a10.96 10.96 0 0 0 16.27 14.34Z"/></g><path fill="#FF9D0B" d="M342.37 99.5a4.1 4.1 0 1 0-5.32-6.27 4.1 4.1 0 0 0 5.32 6.27ZM297.57 137.5a4.1 4.1 0 1 0-5.31-6.25 4.1 4.1 0 0 0 5.3 6.26ZM300.12 153.57a6.6 6.6 0 0 0-2.4 5.14 7.55 7.55 0 0 0 1.8 4.7c-.82.37-1.54.8-2.13 1.3a6.65 6.65 0 0 0-2.43 4.83 7.32 7.32 0 0 0 2.39 5.91 7.38 7.38 0 0 0 2.57 1.49 6.7 6.7 0 0 0 .57 4.16 7.42 7.42 0 0 0 4.64 3.93l.1.56a6.6 6.6 0 0 0 3.65 4.57c2.88 1.4 6.83 1.08 13.2-1.08a82.43 82.43 0 0 0 7.34-2.9c4.78-2.3 8.77-4.8 11.83-7.4 5.64-4.79 8.22-9.94 7.65-15.32-.91-8.66-5.7-13.22-14.65-13.95-4.95-.4-10.08-2.84-11.18-3.4-2.93-1.92-7.32-3.1-10.6-.3-.29.22-.55.48-.79.76a7.2 7.2 0 0 0-1.64 5.36c-2-.39-3.75-.55-5.06-.37a9.36 9.36 0 0 0-4.86 2.01Zm3.27 3.86a4.5 4.5 0 0 1 2.29-.86c3.16-.44 12.9 3.01 16.6 4.43 1.25.48 2.4.15 3.15-.49 1.48-1.26 1.39-3.72-2.71-3.47-6.17.38-8.77-5.36-7.2-7.17.06-.08.14-.15.21-.22 1.64-1.39 4.76.82 4.76.82s6.63 3.53 13.35 4.07c6.72.55 9.39 3.31 10.03 9.45.44 4.19-2.34 7.92-5.88 10.93-3.69 3.13-8.19 5.46-10.77 6.7-.12.07-16.06 7.35-17.05 2.87-.17-.75.1-1.34.67-1.82 2.3-1.94 9.36-2.07 11.15-3.6.4-.33.54-.74.3-1.26-1.56-3.39-14.92 5.97-17.24 1.11-.41-.86-.16-1.57.55-2.16 3.03-2.57 14.35-3.01 15.77-4.22.11-.1.16-.19.15-.3-.27-1.75-1.34-2.22-8.96-1-7.61 1.22-12.7 2.39-12.55-1.5.02-.45.25-.84.65-1.18 3.06-2.6 15.85-2.15 15.85-2.15s3.67.38 4.84-.62a.94.94 0 0 0 .34-.93c-.35-2.12-14.47-1.34-17.24-3.62-1.87-1.54-2.1-2.93-1.06-3.81Z"/><path fill="#FFD21E" d="M343.87 163.99c-.65-6.14-3.31-8.9-10.03-9.45-6.73-.54-13.35-4.07-13.35-4.07s-3.42-2.41-4.98-.6c-1.56 1.81 1.04 7.55 7.2 7.17 6.17-.38 3.28 5.38-.42 3.96-3.7-1.42-13.45-4.87-16.62-4.43-3.16.44-3.99 2.4-1.22 4.67 2.76 2.28 16.88 1.5 17.24 3.62.36 2.12-5.18 1.55-5.18 1.55s-16.35-.56-16.5 3.33c-.15 3.89 4.94 2.72 12.55 1.5 7.62-1.23 8.7-.75 8.95 1 .27 1.76-18.79 1.82-16.46 6.68 2.32 4.86 15.68-4.5 17.24-1.1 1.56 3.38-13.12 2.2-12.13 6.67 1 4.48 16.94-2.8 17.06-2.86 5.07-2.45 17.55-9.11 16.65-17.64Z"/><path fill="#FF9D0B" d="M357.8 104.63a6.59 6.59 0 0 1 5.46-1.53c1.2.2 2.82.84 4.35 2.53a8.95 8.95 0 0 1 1.62-1.88 6.65 6.65 0 0 1 5.16-1.6c2.36.28 4.3 1.46 5.45 3.3.55.88.88 1.8 1.04 2.78a6.7 6.7 0 0 1 4.02 1.25c.97.68 2.75 2.3 3.12 5.22a6.6 6.6 0 0 1 4.46 4.54c.9 3.07-.06 6.9-3.22 12.84-1.97 3.69-4.04 6.74-4.06 6.77a56 56 0 0 1-9.23 10.47c-5.64 4.78-11.15 6.48-16.36 5.05-8.4-2.31-12.12-7.79-11.38-16.73.4-4.95-1.16-10.4-1.53-11.58-1.42-3.2-1.87-7.73 1.42-10.52a7.2 7.2 0 0 1 6.44-1.4 16.6 16.6 0 0 1 .47-5.04c.59-1.9 1.52-3.41 2.77-4.47Zm3.27 3.85a4.5 4.5 0 0 0-1.22 2.12c-.95 3.05.87 13.23 1.67 17.11a3.07 3.07 0 0 1-1 3.02c-1.48 1.26-3.9.77-2.98-3.24 1.38-6.03-3.86-9.52-5.9-8.27-.1.05-.18.11-.25.17-1.64 1.4.04 4.83.04 4.83s2.39 7.11 1.84 13.84c-.56 6.72 1.73 9.8 7.68 11.43 4.06 1.12 8.2-1.02 11.75-4.03 3.68-3.12 6.72-7.18 8.37-9.52.08-.12 9.85-14.65 5.6-16.36-.71-.29-1.34-.11-1.9.37-2.3 1.94-3.58 8.9-5.37 10.41-.4.34-.83.41-1.3.1-3.09-2.1 8.32-13.75 3.9-16.84-.77-.55-1.52-.4-2.22.19-3.03 2.57-5.3 13.67-6.73 14.88-.1.09-.21.12-.31.1-1.7-.55-1.98-1.7.46-9 2.45-7.32 4.43-12.15.56-12.63-.44-.06-.86.1-1.26.44-3.06 2.6-4.7 15.29-4.7 15.29s-.23 3.68-1.4 4.68a.94.94 0 0 1-.98.18c-2.03-.7 1.04-14.5-.76-17.6-1.21-2.1-2.56-2.55-3.59-1.67Z"/><path fill="#FFD21E" d="M360.95 149.5c-5.95-1.65-8.24-4.72-7.69-11.44.56-6.73-1.84-13.84-1.84-13.84s-1.83-3.76.21-5c2.05-1.25 7.29 2.24 5.9 8.27-1.37 6.02 4.78 4.1 3.99.22-.8-3.88-2.62-14.06-1.67-17.11.95-3.05 3.01-3.55 4.81-.45 1.8 3.1-1.27 16.9.76 17.6 2.03.7 2.38-4.86 2.38-4.86s2.1-16.22 5.96-15.73c3.86.48 1.89 5.3-.56 12.62-2.45 7.32-2.16 8.45-.46 9 1.69.55 4.85-18.24 9.26-15.16 4.41 3.09-6.99 14.74-3.9 16.84 3.1 2.09 4.32-12.6 8.57-10.88 4.25 1.7-5.53 16.24-5.6 16.36-3.25 4.6-11.85 15.83-20.12 13.55Z"/></g><g clip-path="url(#r)"><path fill="#fff" d="M201.65 157.8a10.46 10.46 0 0 1 3.33 7.47c.06 2.05-.42 3.92-1.23 5.8-.99 2.23-2.5 4.49-4.46 6.93a83.05 83.05 0 0 1-6.88 7.43 59 59 0 0 1-11.76 8.62c-6.02 3.26-12 4.6-17.63 2.9a51.02 51.02 0 0 1-11.3 6.03c-1.8 5.6-6.25 9.76-12.31 12.9-4.25 2.2-8.8 3.7-13.76 4.88-1.92.44-6.27 1.19-10 1.5-3.12.25-5.83.23-8.23-.22a13.25 13.25 0 0 1-5.5-2.23 10.47 10.47 0 0 1-4.29-6.97 10.8 10.8 0 0 1-3.7-6.09 11 11 0 0 1-.22-3.61 10.96 10.96 0 0 1-2.66-10.7c.41-1.6 1.08-2.91 1.93-3.98a52.75 52.75 0 1 1 90.72-48.18c1.48-.17 3.06 0 4.77.6a10.98 10.98 0 0 1 7.35 8.22c1.04.57 2.02 1.3 2.86 2.22 1.85 2.01 2.76 4.23 2.97 6.48Z"/><path fill="#FFD21E" d="M152.9 192.77a43.9 43.9 0 1 0-41.07-77.61 43.9 43.9 0 0 0 41.07 77.6Z"/><path fill="#FF9D0B" d="M171.18 133.43a43.9 43.9 0 1 0-77.62 41.07 43.9 43.9 0 0 0 77.62-41.07ZM89.1 176.86a48.96 48.96 0 1 1 86.54-45.8 48.96 48.96 0 0 1-86.54 45.8Z"/><path fill="#3A3B45" d="M139.39 136.73c1.69-.25 3.8 2.37 4.83.85a6.32 6.32 0 1 0-8.77 1.68c1.36.93 2.43-2.3 3.94-2.53ZM113.08 150.65c-1.16 1.25-.17 4.48-2.02 4.47a6.32 6.32 0 1 1 6.33-6.3c0 1.65-3.28.7-4.31 1.83ZM140.68 170.35c10.98-5.81 9.34-17.47 6.68-22.5-1.38-2.6-2.7-.86-4.78 2.02-1.91 2.66-4.48 6.29-8.33 8.33-8.01 4.24-18.58 0-15.92 5.02 2.66 5.02 11.38 12.94 22.35 7.13Z"/><mask id="s" width="33" height="27" x="117" y="146" maskUnits="userSpaceOnUse" style="mask-type:alpha"><path fill="#fff" d="M140.68 170.34c10.97-5.8 9.34-17.46 6.68-22.49-1.38-2.61-2.7-.86-4.78 2.02-1.92 2.66-4.48 6.29-8.33 8.33-8.02 4.24-18.59 0-15.93 5.02s11.38 12.93 22.36 7.13Z"/></mask><g mask="url(#s)"><path fill="#F94040" d="M147 181.6a10.96 10.96 0 0 0-7.06-20.47c-1.09.2-.39 3.91-1.42 4.46-.96.5-3.59-2.22-4.33-1.5A10.96 10.96 0 0 0 147 181.6Z"/></g><path fill="#FF9D0B" d="M155.8 134.77a4.1 4.1 0 1 0-3.84-7.26 4.1 4.1 0 0 0 3.85 7.26ZM103.87 162.25a4.1 4.1 0 1 0-3.84-7.26 4.1 4.1 0 0 0 3.84 7.26ZM102.91 178.49a6.6 6.6 0 0 0-3.44 4.5 7.55 7.55 0 0 0 .73 4.97c-.87.19-1.67.45-2.35.81a6.65 6.65 0 0 0-3.41 4.2 7.32 7.32 0 0 0 1.05 6.29 7.4 7.4 0 0 0 2.2 2 6.7 6.7 0 0 0-.34 4.2 7.42 7.42 0 0 0 3.69 4.82c-.02.19-.02.38-.02.57a6.6 6.6 0 0 0 2.58 5.25c2.51 1.99 6.44 2.52 13.12 1.79 4.16-.46 7.76-1.25 7.8-1.26 5.16-1.22 9.58-2.8 13.14-4.68 6.54-3.46 10.16-7.94 10.76-13.31.97-8.66-2.73-14.14-11.3-16.78-4.75-1.46-9.23-4.94-10.2-5.72-2.43-2.51-6.47-4.6-10.28-2.59a7.21 7.21 0 0 0-3.68 5.46 16.59 16.59 0 0 0-4.87-1.44 9.37 9.37 0 0 0-5.18.92Zm2.36 4.46c.57-.3 1.4-.42 2.42-.34 3.18.25 11.96 5.72 15.27 7.9 1.11.73 2.3.66 3.17.2 1.72-.91 2.16-3.34-1.9-3.97-6.1-.96-7.4-7.12-5.49-8.56.09-.06.17-.12.26-.16 1.9-1 4.47 1.82 4.47 1.82s5.72 4.87 12.16 6.85c6.45 1.98 8.46 5.25 7.77 11.38-.47 4.19-4 7.24-8.1 9.41-4.27 2.26-9.17 3.58-11.96 4.24-.13.03-17.26 3.7-17.27-.88 0-.77.4-1.28 1.05-1.63 2.66-1.4 9.59-.01 11.67-1.11.46-.25.68-.62.56-1.17-.8-3.65-15.85 2.61-17.08-2.63-.21-.93.19-1.56 1-2 3.52-1.85 14.66.16 16.31-.72.13-.07.2-.15.21-.26.12-1.77-.83-2.46-8.53-2.9-7.7-.45-12.92-.4-11.93-4.17.11-.44.42-.77.89-1.01 3.54-1.88 15.93 1.31 15.93 1.31s3.5 1.16 4.87.43a.94.94 0 0 0 .53-.83c.1-2.15-13.85-4.42-16.06-7.24-1.5-1.91-1.41-3.32-.22-3.96Z"/><path fill="#FFD21E" d="M143.4 198.07c.69-6.13-1.32-9.4-7.77-11.38-6.45-1.98-12.16-6.85-12.16-6.85s-2.81-3.1-4.73-1.66c-1.91 1.43-.61 7.6 5.5 8.55 6.1.96 2.03 5.96-1.28 3.78-3.3-2.18-12.09-7.65-15.27-7.9-3.18-.25-4.4 1.48-2.2 4.3 2.21 2.81 16.17 5.1 16.06 7.24-.1 2.14-5.4.4-5.4.4s-15.84-4.07-16.82-.3c-.99 3.76 4.23 3.72 11.93 4.16 7.7.45 8.65 1.14 8.53 2.91-.12 1.78-18.74-2.26-17.52 2.98 1.23 5.24 16.29-1.02 17.08 2.63.8 3.64-13.29-.67-13.28 3.91 0 4.58 17.14.9 17.27.88 5.48-1.3 19.1-5.13 20.06-13.65Z"/><path fill="#FF9D0B" d="M169.77 143.1a6.59 6.59 0 0 1 5.66-.32 7.55 7.55 0 0 1 3.7 3.4 8.96 8.96 0 0 1 2-1.48 6.65 6.65 0 0 1 5.38-.46 7.33 7.33 0 0 1 4.6 4.41c.36.97.48 1.95.43 2.94a6.7 6.7 0 0 1 3.65 2.08c.8.87 2.2 2.84 1.92 5.76a6.72 6.72 0 0 1 3.38 5.4c.22 3.19-1.54 6.73-5.9 11.85-2.72 3.18-5.4 5.71-5.43 5.74a56.02 56.02 0 0 1-11.26 8.23c-6.54 3.46-12.28 3.94-17.06 1.41-7.7-4.06-10.16-10.2-7.52-18.78 1.46-4.74 1.1-10.41 1-11.64-.7-3.43-.16-7.95 3.65-9.97a7.2 7.2 0 0 1 6.59.03c.38-2 .88-3.68 1.54-4.83.99-1.74 2.22-3 3.67-3.77Zm2.37 4.47a4.5 4.5 0 0 0-1.65 1.8c-1.58 2.77-2 13.1-2.05 17.07a3.08 3.08 0 0 1-1.62 2.73c-1.73.92-3.98-.08-2.22-3.8 2.64-5.59-1.72-10.13-3.98-9.35-.1.03-.2.07-.29.12-1.9 1-1 4.72-1 4.72s.8 7.46-1.18 13.9c-1.99 6.46-.41 9.95 5.04 12.83 3.73 1.97 8.23.77 12.34-1.4 4.27-2.26 8.11-5.57 10.22-7.5.1-.1 12.78-12.2 9-14.78-.64-.43-1.29-.4-1.94-.05-2.66 1.4-5.4 7.92-7.48 9.02-.47.25-.9.22-1.29-.19-2.56-2.7 11.08-11.64 7.43-15.6-.64-.7-1.4-.72-2.2-.3-3.52 1.87-8.13 12.21-9.78 13.09-.13.06-.24.07-.33.02-1.53-.9-1.57-2.07 2.4-8.69 3.96-6.61 6.93-10.9 3.26-12.2-.43-.16-.87-.08-1.33.16-3.55 1.87-7.88 13.92-7.88 13.92s-1.02 3.54-2.38 4.26a.94.94 0 0 1-1-.03c-1.82-1.12 4.14-13.94 3.05-17.35-.73-2.31-1.94-3.04-3.14-2.4Z"/><path fill="#FFD21E" d="M163.2 187.6c-5.46-2.89-7.03-6.38-5.05-12.83 1.99-6.45 1.18-13.9 1.18-13.9s-.98-4.08 1.29-4.85c2.26-.78 6.62 3.76 3.98 9.35s3.78 5.03 3.84 1.07c.05-3.96.47-14.3 2.05-17.07 1.58-2.77 3.7-2.81 4.8.6 1.08 3.41-4.88 16.24-3.05 17.36 1.83 1.11 3.37-4.25 3.37-4.25s5.54-15.38 9.2-14.08c3.68 1.3.7 5.6-3.26 12.22-3.96 6.61-3.92 7.78-2.39 8.68 1.54.9 8.67-16.77 12.31-12.8 3.65 3.95-10 12.88-7.43 15.6 2.57 2.7 6.93-11.37 10.71-8.79 3.78 2.59-8.89 14.68-9 14.78-4.15 3.8-14.97 12.9-22.55 8.9Z"/></g><g clip-path="url(#t)"><path fill="#fff" d="M112.22 264.74a10.46 10.46 0 0 1-3.75 7.26 13.36 13.36 0 0 1-5.3 2.65c-2.37.63-5.08.86-8.21.84a83 83 0 0 1-10.1-.75 58.96 58.96 0 0 1-14.07-3.81c-6.3-2.68-11.07-6.52-13.27-11.98a50.96 50.96 0 0 1-11.76-5.08c-5.5 2.08-11.52 1.2-17.75-1.58a59.14 59.14 0 0 1-12.4-7.71 83.82 83.82 0 0 1-7.4-6.88 31.44 31.44 0 0 1-4.97-6.57 13.26 13.26 0 0 1-1.68-5.7c-.14-2.81.8-5.57 2.77-7.7a10.8 10.8 0 0 1 2.46-6.68c.77-.97 1.7-1.79 2.69-2.43a10.95 10.95 0 0 1 6.7-8.75 10.4 10.4 0 0 1 4.31-.97 52.75 52.75 0 0 1 104.17 2.38 53.3 53.3 0 0 1 .18 12.8 52.9 52.9 0 0 1-4.1 15.33 52.44 52.44 0 0 1-6.01 10.37 10.45 10.45 0 0 1 2.5 4.1 10.98 10.98 0 0 1-1.85 10.88 11 11 0 0 1 .05 3.62c-.41 2.7-1.58 4.8-3.2 6.36Z"/><path fill="#FFD21E" d="M54.49 248.44a43.9 43.9 0 1 0 35.07-80.5 43.9 43.9 0 0 0-35.07 80.5Z"/><path fill="#FF9D0B" d="M112.28 225.72a43.9 43.9 0 1 0-80.5-35.07 43.9 43.9 0 0 0 80.5 35.07Zm-85.14-37.09a48.96 48.96 0 1 1 89.77 39.1 48.96 48.96 0 0 1-89.77-39.1Z"/><path fill="#3A3B45" d="M89.88 202.93c1.24 1.16.51 4.45 2.35 4.3a6.32 6.32 0 1 0-6.8-5.8c.13 1.64 3.33.45 4.44 1.5ZM62.58 191.04c-1.7-.13-3.6 2.65-4.75 1.21a6.32 6.32 0 1 1 8.87 1.02c-1.29 1.02-2.6-2.13-4.12-2.23ZM64.4 224.9c11.38 4.96 19.47-3.6 21.74-8.8 1.19-2.72-1-2.66-4.55-2.48-3.28.16-7.71.41-11.7-1.33-8.32-3.62-11.6-14.53-13.86-9.32-2.27 5.22-3.02 16.97 8.36 21.93Z"/><mask id="u" width="33" height="26" x="54" y="201" maskUnits="userSpaceOnUse" style="mask-type:alpha"><path fill="#fff" d="M64.4 224.9c11.38 4.95 19.48-3.6 21.75-8.8 1.18-2.72-1.01-2.66-4.56-2.48-3.28.16-7.71.41-11.7-1.33-8.32-3.62-11.59-14.53-13.86-9.32-2.27 5.22-3.02 16.97 8.37 21.93Z"/></mask><g mask="url(#u)"><path fill="#F94040" d="M59.53 236.85a10.96 10.96 0 0 0 11.61-18.28c-.83-.73-3.3 2.14-4.37 1.67-1-.43-.51-4.2-1.54-4.32a10.96 10.96 0 0 0-5.7 20.93Z"/></g><path fill="#FF9D0B" d="M101.64 214.54a4.1 4.1 0 1 0 3.28-7.53 4.1 4.1 0 0 0-3.28 7.53ZM47.78 191.07a4.1 4.1 0 1 0 3.28-7.52 4.1 4.1 0 0 0-3.28 7.52ZM34.48 200.44a6.59 6.59 0 0 0-5.66.11 7.55 7.55 0 0 0-3.43 3.68 9 9 0 0 0-2.1-1.33 6.65 6.65 0 0 0-5.4-.05 7.32 7.32 0 0 0-4.27 4.75 7.4 7.4 0 0 0-.2 2.96 6.7 6.7 0 0 0-3.48 2.35c-.74.93-1.97 3-1.48 5.9a6.6 6.6 0 0 0-2.96 5.63c.02 3.2 2.05 6.6 6.79 11.37 2.95 2.96 5.81 5.28 5.84 5.3a56 56 0 0 0 11.86 7.36c6.78 2.96 12.54 3 17.12.12 7.37-4.64 9.35-10.95 6.07-19.3-1.82-4.62-1.9-10.3-1.89-11.53.45-3.48-.44-7.94-4.39-9.66a7.21 7.21 0 0 0-6.56.53 16.57 16.57 0 0 0-1.9-4.71 9.36 9.36 0 0 0-3.96-3.48Zm-2.01 4.64c.59.25 1.2.82 1.77 1.67 1.8 2.65 2.99 12.92 3.35 16.87a3.07 3.07 0 0 0 1.82 2.6c1.79.78 3.95-.4 1.92-3.96-3.06-5.38.95-10.23 3.27-9.63.1.03.2.06.28.1 1.97.86 1.36 4.63 1.36 4.63s-.24 7.5 2.23 13.78c2.47 6.28 1.17 9.88-4.05 13.17-3.57 2.24-8.15 1.39-12.41-.47-4.43-1.93-8.5-4.94-10.76-6.7-.11-.09-13.67-11.19-10.1-14.05.6-.48 1.26-.5 1.94-.2 2.76 1.2 5.99 7.49 8.14 8.43.48.2.91.15 1.27-.29 2.35-2.9-11.93-10.76-8.6-15 .6-.74 1.34-.82 2.19-.45 3.64 1.58 9.02 11.55 10.74 12.3.13.06.24.06.32 0 1.47-1.01 1.42-2.18-3.04-8.48-4.45-6.3-7.74-10.35-4.18-11.93.41-.18.86-.15 1.34.06 3.67 1.6 8.91 13.28 8.91 13.28s1.28 3.46 2.7 4.08c.33.14.66.13.98-.1 1.75-1.26-5.18-13.6-4.35-17.08.56-2.36 1.71-3.18 2.96-2.63Z"/><path fill="#FFD21E" d="M44.41 244.3c5.23-3.28 6.53-6.89 4.06-13.16-2.47-6.28-2.23-13.78-2.23-13.78s.67-4.13-1.65-4.73c-2.31-.6-6.32 4.25-3.26 9.63 3.06 5.37-3.39 5.3-3.75 1.35-.35-3.95-1.55-14.22-3.34-16.86-1.79-2.64-3.9-2.52-4.73.96-.83 3.48 6.1 15.82 4.35 17.07-1.74 1.26-3.68-3.97-3.68-3.97s-6.7-14.92-10.25-13.34c-3.56 1.58-.28 5.63 4.18 11.93 4.45 6.3 4.5 7.47 3.04 8.48-1.46 1-9.91-16.07-13.25-11.84-3.33 4.22 10.95 12.1 8.6 14.99-2.36 2.9-7.77-10.8-11.35-7.94-3.57 2.86 9.98 13.96 10.1 14.04 4.42 3.47 15.9 11.74 23.16 7.18Z"/><path fill="#FF9D0B" d="M103.84 230.66a6.6 6.6 0 0 1 3.78 4.22c.34 1.18.5 2.9-.36 5.02.89.12 1.7.32 2.4.63a6.65 6.65 0 0 1 3.73 3.92c.77 2.25.57 4.5-.58 6.35a7.4 7.4 0 0 1-2.03 2.16c.64 1.24.88 2.67.65 4.16a7.42 7.42 0 0 1-3.31 5.1 6.74 6.74 0 0 1-2.1 6c-2.37 2.16-6.24 3-12.96 2.77-4.18-.14-7.83-.66-7.86-.66a56.03 56.03 0 0 1-13.47-3.67C64.95 263.7 61 259.5 59.99 254.2c-1.62-8.55 1.65-14.3 10-17.59 4.62-1.81 8.83-5.63 9.73-6.47 2.24-2.7 6.1-5.09 10.06-3.36a7.2 7.2 0 0 1 4.09 5.16 16.6 16.6 0 0 1 4.74-1.8 9.37 9.37 0 0 1 5.23.52Zm-2.02 4.63a4.5 4.5 0 0 0-2.43-.16c-3.16.49-11.5 6.6-14.63 9.03a3.07 3.07 0 0 1-3.15.44c-1.78-.78-2.4-3.16 1.6-4.1 6.01-1.42 6.84-7.66 4.82-8.95-.09-.06-.18-.1-.27-.14-1.97-.86-4.31 2.16-4.31 2.16s-5.34 5.28-11.61 7.75c-6.28 2.46-8.04 5.87-6.88 11.94.78 4.13 4.52 6.9 8.79 8.76 4.42 1.93 9.4 2.87 12.24 3.32.14.02 17.5 2.39 17.16-2.18-.06-.77-.5-1.26-1.18-1.55-2.75-1.2-9.56.72-11.71-.22-.48-.21-.73-.57-.65-1.13.51-3.7 16 1.4 16.83-3.91.14-.95-.3-1.55-1.15-1.92-3.65-1.58-14.61 1.26-16.32.52-.13-.06-.21-.14-.23-.24-.25-1.76.64-2.52 8.29-3.55 7.64-1.03 12.85-1.38 11.58-5.06-.15-.43-.48-.73-.96-.94-3.68-1.6-15.8 2.52-15.8 2.52s-3.4 1.41-4.81.8a.94.94 0 0 1-.6-.8c-.27-2.12 13.48-5.45 15.47-8.43 1.34-2.02 1.16-3.42-.09-3.96Z"/><path fill="#FFD21E" d="M64.95 253.25c-1.15-6.06.6-9.47 6.88-11.94 6.28-2.46 11.61-7.75 11.61-7.75s2.57-3.3 4.59-2.01c2.01 1.28 1.19 7.53-4.83 8.94-6.01 1.42-1.58 6.1 1.56 3.67 3.13-2.43 11.47-8.55 14.62-9.04 3.16-.49 4.51 1.15 2.52 4.13-1.99 2.97-15.73 6.3-15.47 8.43.27 2.14 5.42 0 5.42 0s15.48-5.27 16.75-1.59c1.27 3.69-3.93 4.04-11.58 5.07-7.65 1.02-8.54 1.79-8.28 3.55.25 1.75 18.52-3.69 17.69 1.63-.83 5.32-16.31.22-16.83 3.92-.52 3.7 13.2-1.67 13.54 2.9.34 4.56-17.02 2.2-17.16 2.17-5.55-.87-19.43-3.65-21.03-12.08Z"/></g><g clip-path="url(#v)"><path fill="#fff" d="M431.89 143.43c.2 2.88-.77 5.62-2.64 7.74a13.35 13.35 0 0 1-4.86 3.4 31.84 31.84 0 0 1-7.99 2.04c-3.7.52-8.1.76-10.1.75a59.01 59.01 0 0 1-14.48-1.7c-6.63-1.7-11.9-4.8-14.88-9.88a51.35 51.35 0 0 1-12.38-3.29c-5.14 2.87-11.23 2.9-17.8 1.06a59.16 59.16 0 0 1-13.4-5.8c-1.7-.98-5.4-3.4-8.34-5.7a31.45 31.45 0 0 1-5.88-5.77 13.27 13.27 0 0 1-2.5-5.39 10.46 10.46 0 0 1 1.6-8.02 10.8 10.8 0 0 1 1.45-6.97c.62-1.08 1.4-2.02 2.3-2.8a10.96 10.96 0 0 1 5.34-9.65c1.39-.9 2.77-1.4 4.12-1.6a52.75 52.75 0 1 1 99.24 26.52c1.2.89 2.23 2.08 3.07 3.7a10.98 10.98 0 0 1-.22 11.02 11 11 0 0 1 .59 3.57 10.88 10.88 0 0 1-2.24 6.77Z"/><path fill="#FFD21E" d="M372.38 135.83a43.9 43.9 0 1 0 22.8-84.8 43.9 43.9 0 0 0-22.8 84.8Z"/><path fill="#FF9D0B" d="M426.18 104.83a43.9 43.9 0 1 0-84.8-22.8 43.9 43.9 0 0 0 84.8 22.8ZM336.5 80.72a48.96 48.96 0 1 1 94.56 25.42 48.96 48.96 0 0 1-94.56-25.42Z"/><path fill="#3A3B45" d="M400.66 85.6c1.4.96 1.16 4.32 2.96 3.9a6.32 6.32 0 1 0-7.57-4.73c.37 1.6 3.35-.04 4.6.82ZM371.92 77.86c-1.7.13-3.19 3.17-4.53 1.9a6.32 6.32 0 1 1 8.93-.3c-1.13 1.2-2.88-1.71-4.4-1.6ZM378.7 111.09c12 3.22 18.74-6.43 20.22-11.92.76-2.86-1.4-2.47-4.88-1.78-3.21.64-7.56 1.55-11.77.42-8.76-2.35-13.6-12.66-15.08-7.17-1.47 5.5-.48 17.22 11.51 20.45Z"/><mask id="w" width="34" height="23" x="366" y="89" maskUnits="userSpaceOnUse" style="mask-type:alpha"><path fill="#fff" d="M378.7 111.08c12 3.23 18.74-6.42 20.22-11.91.76-2.86-1.4-2.47-4.88-1.78-3.21.64-7.56 1.55-11.77.42-8.76-2.35-13.6-12.66-15.08-7.17-1.47 5.49-.48 17.22 11.51 20.44Z"/></mask><g mask="url(#w)"><path fill="#F94040" d="M375.66 123.63a10.96 10.96 0 0 0 8.78-19.8c-.93-.6-2.95 2.6-4.08 2.3-1.05-.28-1.12-4.07-2.15-4.04a10.96 10.96 0 0 0-2.55 21.54Z"/></g><path fill="#FF9D0B" d="M414 95.34a4.1 4.1 0 1 0 2.14-7.93 4.1 4.1 0 0 0-2.13 7.93ZM357.27 80.09a4.1 4.1 0 1 0 2.13-7.93 4.1 4.1 0 0 0-2.13 7.93ZM345.5 91.32a6.59 6.59 0 0 0-5.58.94c-1 .7-2.2 1.96-2.86 4.15a8.95 8.95 0 0 0-2.26-1.01c-1.9-.51-3.8-.24-5.36.75a7.32 7.32 0 0 0-3.51 5.32c-.13 1.03-.03 2 .24 2.96a6.7 6.7 0 0 0-3.1 2.84 7.42 7.42 0 0 0-.6 6.05 6.6 6.6 0 0 0-2.1 6c.5 3.17 3.01 6.23 8.4 10.25a82.1 82.1 0 0 0 6.56 4.39 55.95 55.95 0 0 0 12.82 5.52c7.14 1.93 12.85 1.11 16.95-2.41 6.6-5.68 7.63-12.21 3.15-19.98-2.48-4.3-3.39-9.91-3.56-11.13-.08-3.5-1.61-7.79-5.77-8.9a7.2 7.2 0 0 0-6.42 1.49 16.56 16.56 0 0 0-2.58-4.38 9.36 9.36 0 0 0-4.42-2.85Zm-1.3 4.88c.61.16 1.3.63 2 1.39 2.16 2.35 4.86 12.33 5.8 16.19a3.07 3.07 0 0 0 2.18 2.3c1.88.5 3.86-.97 1.31-4.2-3.81-4.86-.56-10.26 1.81-10 .1 0 .2.03.3.05 2.08.56 2.03 4.38 2.03 4.38s.87 7.46 4.24 13.3c3.37 5.84 2.62 9.6-2.06 13.62-3.2 2.75-7.85 2.58-12.35 1.37-4.66-1.25-9.14-3.62-11.63-5.04-.12-.07-15.17-9.04-12.05-12.4.52-.57 1.16-.68 1.88-.48 2.9.78 7.02 6.52 9.3 7.13.5.13.92.02 1.2-.47 1.9-3.21-13.38-8.89-10.7-13.56.47-.83 1.2-1.02 2.08-.78 3.84 1.03 10.64 10.1 12.44 10.58.14.04.25.02.32-.05 1.3-1.21 1.08-2.36-4.26-7.94-5.33-5.57-9.18-9.09-5.9-11.17.39-.25.84-.28 1.34-.14 3.87 1.04 10.78 11.82 10.78 11.82s1.77 3.23 3.27 3.63c.34.09.67.03.96-.25 1.53-1.5-7.13-12.67-6.83-16.24.2-2.42 1.22-3.4 2.53-3.04Z"/><path fill="#FFD21E" d="M361.8 133.24c4.69-4.03 5.44-7.79 2.08-13.63-3.37-5.84-4.25-13.3-4.25-13.3s.06-4.18-2.32-4.43c-2.38-.26-5.63 5.14-1.81 10s-2.57 5.75-3.5 1.9c-.94-3.86-3.64-13.84-5.8-16.19-2.16-2.35-4.24-1.92-4.54 1.65-.3 3.57 8.37 14.74 6.83 16.24-1.54 1.5-4.23-3.38-4.23-3.38s-8.82-13.77-12.11-11.68c-3.29 2.08.56 5.6 5.9 11.18 5.33 5.57 5.55 6.72 4.26 7.93-1.3 1.22-12.18-14.42-14.85-9.75s12.61 10.35 10.7 13.56c-1.9 3.21-9.27-9.54-12.38-6.18-3.11 3.36 11.93 12.33 12.05 12.4 4.9 2.78 17.47 9.26 23.98 3.68Z"/><path fill="#FF9D0B" d="M418.56 110.96a6.59 6.59 0 0 1 4.36 3.62c.51 1.11.91 2.8.39 5.01.9-.01 1.72.07 2.47.27 1.89.5 3.4 1.7 4.26 3.33a7.32 7.32 0 0 1 .37 6.37c-.41.95-.98 1.75-1.7 2.44a6.7 6.7 0 0 1 1.26 4.01c0 1.19-.33 3.57-2.52 5.53.06.18.1.37.15.55a6.6 6.6 0 0 1-1.35 5.7c-2.01 2.49-5.72 3.88-12.4 4.65-4.15.48-7.84.5-7.87.5-5.31-.04-9.98-.6-13.86-1.63-7.15-1.93-11.67-5.49-13.45-10.6-2.87-8.21-.49-14.39 7.29-18.86 4.3-2.48 7.9-6.87 8.66-7.84 1.82-3 5.3-5.94 9.46-4.82a6.96 6.96 0 0 1 4.8 4.5 16.6 16.6 0 0 1 4.43-2.48c1.9-.6 3.67-.68 5.25-.25Zm-1.31 4.88a4.51 4.51 0 0 0-2.44.2c-3.04.95-10.39 8.23-13.13 11.1a3.07 3.07 0 0 1-3.05.9c-1.88-.51-2.84-2.78.97-4.3 5.75-2.3 5.64-8.59 3.45-9.56-.1-.05-.19-.08-.28-.1-2.08-.56-3.95 2.77-3.95 2.77s-4.5 6.01-10.34 9.38c-5.85 3.36-7.08 7-5.04 12.82 1.38 3.97 5.5 6.17 9.99 7.37 4.66 1.26 9.73 1.45 12.6 1.48.13 0 17.65-.22 16.64-4.7-.17-.74-.67-1.16-1.39-1.35-2.9-.79-9.35 2.12-11.62 1.5-.5-.13-.8-.44-.8-1-.04-3.74 16.03-.98 16.06-6.37 0-.95-.53-1.48-1.42-1.72-3.84-1.03-14.26 3.4-16.06 2.92-.14-.04-.23-.1-.26-.2-.51-1.7.26-2.6 7.67-4.74 7.4-2.14 12.5-3.26 10.7-6.71-.2-.4-.58-.66-1.08-.8-3.87-1.03-15.25 4.83-15.25 4.83s-3.16 1.9-4.65 1.5a.94.94 0 0 1-.7-.69c-.58-2.07 12.52-7.4 14.05-10.63 1.03-2.2.64-3.55-.67-3.9Z"/><path fill="#FFD21E" d="M383.44 139.05c-2.04-5.83-.8-9.46 5.04-12.83 5.85-3.36 10.34-9.38 10.34-9.38s2.05-3.64 4.24-2.67c2.18.98 2.29 7.27-3.45 9.57-5.75 2.29-.67 6.26 2.07 3.4 2.75-2.87 10.09-10.15 13.13-11.1 3.05-.96 4.63.46 3.1 3.7-1.52 3.24-14.62 8.56-14.05 10.63.58 2.07 5.36-.81 5.36-.81s14.54-7.49 16.33-4.03c1.8 3.45-3.3 4.57-10.7 6.71-7.41 2.14-8.18 3.03-7.67 4.73.51 1.7 17.77-6.37 17.74-.99-.03 5.38-16.1 2.63-16.07 6.36.04 3.73 12.81-3.6 13.82.87 1.01 4.46-16.5 4.69-16.65 4.68-5.62-.04-19.75-.74-22.58-8.84Z"/></g><g clip-path="url(#x)"><path fill="#fff" d="M183.1 250.2c.94 2.72.71 5.63-.55 8.16a13.37 13.37 0 0 1-3.8 4.54 31.82 31.82 0 0 1-7.2 4.05 83.12 83.12 0 0 1-9.55 3.35 58.98 58.98 0 0 1-14.43 2.12c-6.84.06-12.74-1.56-16.94-5.69a50.97 50.97 0 0 1-12.81.04c-4.2 4.1-10.08 5.71-16.9 5.65a59.17 59.17 0 0 1-14.45-2.13c-1.9-.5-6.1-1.88-9.54-3.34a31.43 31.43 0 0 1-7.17-4.05c-1.6-1.27-2.9-2.7-3.82-4.54a10.46 10.46 0 0 1-.53-8.17 10.8 10.8 0 0 1-.42-7.11 11 11 0 0 1 1.5-3.3 10.96 10.96 0 0 1 2.65-10.7 10.38 10.38 0 0 1 3.56-2.62 52.75 52.75 0 1 1 102.72-.15c1.4.55 2.7 1.43 3.93 2.77a10.98 10.98 0 0 1 2.65 10.7 11 11 0 0 1 1.5 3.3c.69 2.64.46 5.03-.4 7.11Z"/><path fill="#FFD21E" d="M123.65 258.3a43.9 43.9 0 1 0 0-87.81 43.9 43.9 0 0 0 0 87.81Z"/><path fill="#FF9D0B" d="M167.56 214.4a43.9 43.9 0 1 0-87.82 0 43.9 43.9 0 0 0 87.82 0Zm-92.87 0a48.96 48.96 0 1 1 97.92 0 48.96 48.96 0 0 1-97.92 0Z"/><path fill="#3A3B45" d="M137.91 202.44c1.61.57 2.25 3.88 3.88 3.02a6.32 6.32 0 1 0-8.54-2.61c.77 1.45 3.22-.91 4.66-.4ZM108.15 202.44c-1.61.57-2.25 3.88-3.88 3.02a6.32 6.32 0 1 1 8.55-2.61c-.78 1.45-3.23-.91-4.67-.4ZM123.33 232.77c12.42 0 16.43-11.07 16.43-16.76 0-2.95-1.99-2.02-5.17-.45-2.94 1.46-6.9 3.46-11.26 3.46-9.07 0-16.42-8.7-16.42-3 0 5.68 4 16.75 16.42 16.75Z"/><mask id="y" width="34" height="19" x="106" y="214" maskUnits="userSpaceOnUse" style="mask-type:alpha"><path fill="#fff" d="M123.34 232.77c12.42 0 16.42-11.08 16.42-16.76 0-2.96-1.98-2.03-5.16-.45-2.94 1.45-6.9 3.46-11.26 3.46-9.07 0-16.43-8.7-16.43-3.01 0 5.68 4.01 16.76 16.43 16.76Z"/></mask><g mask="url(#y)"><path fill="#F94040" d="M123.66 245.67a10.96 10.96 0 0 0 3.34-21.4c-1.06-.33-2.18 3.29-3.34 3.29-1.09 0-2.14-3.65-3.13-3.35a10.96 10.96 0 0 0 3.13 21.46Z"/></g><path fill="#FF9D0B" d="M153.34 208.4a4.1 4.1 0 1 0 0-8.22 4.1 4.1 0 0 0 0 8.21ZM94.6 208.4a4.1 4.1 0 1 0 0-8.21 4.1 4.1 0 0 0 0 8.2ZM86.14 222.3c-2.04 0-3.87.83-5.15 2.36a7.55 7.55 0 0 0-1.68 4.74 8.95 8.95 0 0 0-2.45-.38c-1.96 0-3.73.75-4.98 2.11a7.32 7.32 0 0 0-2 6.05 7.39 7.39 0 0 0 1 2.8 6.7 6.7 0 0 0-2.26 3.55 7.42 7.42 0 0 0 1 5.99 6.72 6.72 0 0 0-.47 6.34c1.3 2.93 4.52 5.24 10.76 7.72a82.26 82.26 0 0 0 7.48 2.53 56.01 56.01 0 0 0 13.81 2.01c7.4 0 12.7-2.26 15.74-6.73 4.9-7.2 4.2-13.77-2.14-20.12-3.51-3.5-5.85-8.68-6.33-9.82-.98-3.36-3.58-7.1-7.89-7.1a7.2 7.2 0 0 0-5.8 3.1 16.57 16.57 0 0 0-3.63-3.54 9.36 9.36 0 0 0-5-1.62Zm0 5.05c.65 0 1.43.27 2.3.82 2.7 1.71 7.9 10.65 9.8 14.13a3.07 3.07 0 0 0 2.71 1.66c1.95 0 3.47-1.94.18-4.4-4.95-3.7-3.21-9.76-.85-10.13l.3-.03c2.15 0 3.1 3.7 3.1 3.7s2.77 6.98 7.55 11.75c4.77 4.77 5.01 8.6 1.54 13.7-2.38 3.47-6.91 4.52-11.57 4.52-4.82 0-9.77-1.13-12.54-1.85-.14-.03-17-4.8-14.86-8.85.36-.68.95-.95 1.7-.95 3 0 8.47 4.47 10.82 4.47.53 0 .9-.22 1.05-.77 1-3.6-15.23-5.1-13.87-10.31.25-.92.9-1.3 1.82-1.3 3.97 0 12.89 7 14.76 7 .14 0 .24-.05.3-.14.93-1.5.42-2.56-6.18-6.56-6.6-4-11.23-6.4-8.6-9.26.3-.33.74-.48 1.26-.48 4 0 13.47 8.62 13.47 8.62s2.56 2.65 4.1 2.65c.36 0 .66-.14.86-.48 1.1-1.85-10.17-10.4-10.8-13.92-.44-2.38.3-3.6 1.65-3.6Z"/><path fill="#FFD21E" d="M112.76 258.54c3.48-5.1 3.23-8.93-1.54-13.7-4.77-4.76-7.55-11.74-7.55-11.74s-1.03-4.05-3.4-3.67c-2.36.37-4.1 6.42.86 10.13 4.95 3.7-.99 6.21-2.9 2.74-1.9-3.48-7.1-12.42-9.8-14.13-2.69-1.7-4.59-.75-3.95 2.77.64 3.53 11.9 12.07 10.81 13.92-1.1 1.84-4.96-2.18-4.96-2.18s-12.1-11-14.73-8.13c-2.63 2.86 2 5.27 8.6 9.26 6.6 4 7.11 5.05 6.17 6.56-.93 1.51-15.5-10.77-16.87-5.56-1.37 5.2 14.87 6.72 13.87 10.31-1 3.6-11.44-6.8-13.57-2.75-2.14 4.05 14.72 8.81 14.86 8.85 5.44 1.41 19.27 4.4 24.1-2.68Z"/><path fill="#FF9D0B" d="M161.8 222.3c2.04 0 3.87.83 5.14 2.35a7.55 7.55 0 0 1 1.68 4.75 8.99 8.99 0 0 1 2.45-.39c1.96 0 3.73.75 4.98 2.12a7.32 7.32 0 0 1 2.01 6.05 7.39 7.39 0 0 1-1 2.8 6.7 6.7 0 0 1 2.26 3.54c.3 1.15.6 3.54-1 6a6.6 6.6 0 0 1 .46 6.34c-1.3 2.93-4.51 5.24-10.76 7.71-3.89 1.55-7.45 2.53-7.48 2.54a56 56 0 0 1-13.8 2.01c-7.4 0-12.7-2.26-15.75-6.73-4.9-7.2-4.2-13.78 2.14-20.12 3.52-3.5 5.85-8.68 6.34-9.82.98-3.36 3.57-7.1 7.88-7.1a7.2 7.2 0 0 1 5.8 3.1 16.57 16.57 0 0 1 3.64-3.55 9.36 9.36 0 0 1 5-1.6Zm0 5.04c-.65 0-1.44.28-2.3.83-2.7 1.7-7.9 10.65-9.8 14.13a3.07 3.07 0 0 1-2.72 1.65c-1.94 0-3.47-1.93-.17-4.4 4.94-3.7 3.2-9.75.85-10.12l-.3-.03c-2.16 0-3.1 3.7-3.1 3.7s-2.78 6.98-7.55 11.75c-4.77 4.76-5.02 8.6-1.54 13.69 2.37 3.48 6.9 4.53 11.56 4.53 4.83 0 9.77-1.13 12.55-1.85.13-.04 16.99-4.8 14.85-8.85-.35-.68-.95-.96-1.69-.96-3 0-8.48 4.48-10.83 4.48-.52 0-.9-.22-1.05-.77-1-3.6 15.24-5.1 13.87-10.31-.24-.92-.9-1.3-1.81-1.3-3.98 0-12.9 7-14.76 7-.15 0-.25-.05-.3-.14-.94-1.5-.43-2.56 6.17-6.56 6.6-4 11.23-6.4 8.6-9.27-.3-.33-.73-.47-1.26-.47-4 0-13.47 8.61-13.47 8.61s-2.55 2.66-4.1 2.66a.94.94 0 0 1-.86-.49c-1.1-1.84 10.18-10.38 10.81-13.9.43-2.4-.3-3.6-1.66-3.6Z"/><path fill="#FFD21E" d="M135.17 258.54c-3.48-5.1-3.23-8.93 1.54-13.7 4.77-4.76 7.55-11.74 7.55-11.74s1.03-4.05 3.4-3.67c2.36.37 4.1 6.42-.85 10.13-4.95 3.7.98 6.21 2.88 2.74 1.9-3.48 7.1-12.42 9.8-14.13 2.7-1.7 4.6-.75 3.96 2.77-.63 3.53-11.9 12.07-10.8 13.92 1.09 1.84 4.95-2.18 4.95-2.18s12.1-11 14.73-8.13c2.63 2.86-2 5.27-8.6 9.26-6.6 4-7.1 5.05-6.17 6.56.94 1.51 15.5-10.77 16.87-5.56 1.37 5.2-14.87 6.72-13.86 10.31 1 3.6 11.43-6.8 13.57-2.75 2.13 4.05-14.73 8.81-14.86 8.85-5.45 1.41-19.28 4.4-24.11-2.68Z"/></g><g clip-path="url(#z)"><path fill="#fff" d="M316.53 239.17c.34 2.87-.5 5.66-2.28 7.85a13.36 13.36 0 0 1-4.69 3.63 31.83 31.83 0 0 1-7.89 2.4c-3.67.7-8.06 1.15-10.05 1.23-5.07.19-9.86-.03-14.55-1.03-6.7-1.4-12.11-4.25-15.32-9.18a51.14 51.14 0 0 1-12.52-2.71c-5 3.1-11.08 3.4-17.73 1.88a59.17 59.17 0 0 1-13.65-5.17 83.82 83.82 0 0 1-8.6-5.31 31.42 31.42 0 0 1-6.14-5.5 13.27 13.27 0 0 1-2.75-5.25 10.47 10.47 0 0 1 1.23-8.09 10.8 10.8 0 0 1 1.12-7.04c.57-1.1 1.31-2.08 2.17-2.9a10.96 10.96 0 0 1 4.89-9.88 10.4 10.4 0 0 1 4.04-1.8 52.75 52.75 0 1 1 100.36 21.9c1.24.83 2.33 1.97 3.24 3.55a10.98 10.98 0 0 1 .3 11.02c.43 1.1.7 2.3.74 3.54.12 2.72-.62 5-1.92 6.86Z"/><path fill="#FFD21E" d="M256.74 234.34a43.9 43.9 0 1 0 18.84-85.76 43.9 43.9 0 0 0-18.84 85.76Z"/><path fill="#FF9D0B" d="M309.04 200.87a43.9 43.9 0 1 0-85.77-18.84 43.9 43.9 0 0 0 85.77 18.84Zm-90.7-19.92a48.96 48.96 0 1 1 95.64 21 48.96 48.96 0 0 1-95.64-21Z"/><path fill="#3A3B45" d="M282.66 182.84c1.45.9 1.36 4.28 3.14 3.78a6.32 6.32 0 1 0-7.79-4.38c.44 1.58 3.35-.2 4.65.6ZM253.59 176.45c-1.7.21-3.03 3.3-4.44 2.11a6.32 6.32 0 1 1 8.91-.71c-1.07 1.25-2.96-1.59-4.47-1.4ZM261.9 209.33c12.14 2.66 18.43-7.3 19.65-12.85.63-2.88-1.5-2.4-4.95-1.54-3.19.79-7.49 1.9-11.74.96-8.86-1.94-14.18-12.02-15.4-6.47-1.22 5.56.32 17.23 12.45 19.9Z"/><mask id="A" width="33" height="23" x="249" y="187" maskUnits="userSpaceOnUse" style="mask-type:alpha"><path fill="#fff" d="M261.91 209.33c12.13 2.66 18.42-7.3 19.64-12.85.63-2.88-1.5-2.4-4.95-1.54-3.19.79-7.48 1.9-11.74.96-8.86-1.94-14.18-12.02-15.4-6.46-1.22 5.55.32 17.22 12.45 19.89Z"/></mask><g mask="url(#A)"><path fill="#F94040" d="M259.45 222a10.96 10.96 0 0 0 7.86-20.19c-.96-.55-2.83 2.74-3.97 2.5-1.06-.24-1.31-4.03-2.34-3.95a10.96 10.96 0 0 0-1.55 21.63Z"/></g><path fill="#FF9D0B" d="M296.45 191.96a4.1 4.1 0 1 0 1.76-8.02 4.1 4.1 0 0 0-1.76 8.02ZM239.06 179.36a4.1 4.1 0 1 0 1.77-8.02 4.1 4.1 0 0 0-1.77 8.02ZM227.83 191.11a6.6 6.6 0 0 0-5.54 1.2 7.55 7.55 0 0 0-2.65 4.28 8.99 8.99 0 0 0-2.32-.9 6.65 6.65 0 0 0-5.31 1 7.32 7.32 0 0 0-3.27 5.48c-.07 1.03.07 2 .38 2.94a6.7 6.7 0 0 0-2.96 2.98 7.42 7.42 0 0 0-.31 6.07 6.6 6.6 0 0 0-1.81 6.1c.63 3.13 3.28 6.08 8.85 9.84 3.47 2.34 6.73 4.07 6.76 4.08a56.02 56.02 0 0 0 13.06 4.93c7.22 1.58 12.88.5 16.81-3.2 6.34-5.97 7.07-12.55 2.23-20.1-2.68-4.2-3.85-9.75-4.08-10.96-.24-3.5-1.97-7.7-6.18-8.63a7.2 7.2 0 0 0-6.34 1.79 16.56 16.56 0 0 0-2.78-4.25 9.35 9.35 0 0 0-4.54-2.65Zm-1.09 4.94c.63.14 1.34.57 2.07 1.3 2.27 2.25 5.43 12.1 6.54 15.9a3.08 3.08 0 0 0 2.3 2.2c1.9.42 3.8-1.15 1.11-4.26-4.04-4.68-1.04-10.22 1.35-10.07.1 0 .2.02.3.04 2.1.46 2.23 4.28 2.23 4.28s1.21 7.4 4.85 13.09c3.64 5.68 3.06 9.47-1.43 13.7-3.06 2.89-7.72 2.94-12.27 1.94-4.71-1.03-9.3-3.2-11.85-4.5-.13-.06-15.57-8.33-12.62-11.83.5-.59 1.14-.72 1.86-.56 2.94.64 7.32 6.18 9.62 6.69.51.11.92-.03 1.19-.53 1.75-3.3-13.79-8.25-11.34-13.04.44-.85 1.16-1.08 2.06-.88 3.88.85 11.08 9.6 12.91 10 .14.02.25 0 .32-.07 1.24-1.27.97-2.42-4.62-7.73-5.6-5.32-9.6-8.66-6.41-10.9.37-.26.82-.3 1.33-.2 3.91.87 11.3 11.31 11.3 11.31s1.93 3.14 3.44 3.48c.35.07.67 0 .95-.3 1.46-1.56-7.71-12.32-7.58-15.9.1-2.43 1.07-3.45 2.4-3.16Z"/><path fill="#FFD21E" d="M246.06 232.24c4.49-4.24 5.07-8.03 1.43-13.71-3.64-5.68-4.85-13.09-4.85-13.09s-.15-4.18-2.53-4.32c-2.4-.14-5.38 5.4-1.35 10.07 4.04 4.68-2.3 5.87-3.4 2.06-1.12-3.8-4.28-13.65-6.55-15.9-2.26-2.25-4.32-1.72-4.46 1.86-.13 3.58 9.05 14.34 7.58 15.91-1.47 1.57-4.38-3.19-4.38-3.19s-9.45-13.34-12.64-11.1c-3.19 2.23.82 5.57 6.4 10.9 5.6 5.3 5.87 6.45 4.63 7.72-1.24 1.28-12.83-13.84-15.28-9.05-2.46 4.79 13.08 9.75 11.33 13.04-1.75 3.3-9.71-9.1-12.67-5.6-2.95 3.5 12.5 11.78 12.62 11.84 5.01 2.55 17.88 8.44 24.12 2.56Z"/><path fill="#FF9D0B" d="M301.72 207.35c2 .44 3.6 1.65 4.52 3.41a7.55 7.55 0 0 1 .62 5 8.97 8.97 0 0 1 2.48.15 6.65 6.65 0 0 1 4.41 3.13 7.33 7.33 0 0 1 .67 6.34c-.37.97-.9 1.8-1.58 2.52a6.7 6.7 0 0 1 1.44 3.95 7.43 7.43 0 0 1-2.26 5.64l.17.54a6.6 6.6 0 0 1-1.08 5.75c-1.9 2.59-5.53 4.15-12.17 5.23-4.13.67-7.81.87-7.84.87-5.31.2-10-.14-13.93-1-7.22-1.59-11.9-4.94-13.92-9.95-3.25-8.08-1.15-14.36 6.4-19.2 4.19-2.67 7.58-7.22 8.3-8.22 1.68-3.08 5.01-6.17 9.22-5.25a7.2 7.2 0 0 1 5 4.28 16.6 16.6 0 0 1 4.31-2.7 9.35 9.35 0 0 1 5.24-.49Zm-1.09 4.94a4.52 4.52 0 0 0-2.42.3c-3 1.1-10 8.72-12.6 11.7a3.07 3.07 0 0 1-3 1.04c-1.9-.42-2.98-2.64.77-4.33 5.63-2.56 5.23-8.84 3-9.72l-.3-.08c-2.09-.46-3.81 2.95-3.81 2.95s-4.2 6.21-9.9 9.85c-5.67 3.63-6.74 7.32-4.43 13.04 1.57 3.9 5.77 5.9 10.32 6.9 4.71 1.04 9.79 1 12.65.9.14-.02 17.63-1.05 16.41-5.47-.2-.74-.72-1.13-1.45-1.3-2.94-.64-9.24 2.56-11.54 2.06-.51-.12-.82-.41-.85-.98-.21-3.72 15.97-1.72 15.75-7.1-.04-.95-.6-1.45-1.5-1.65-3.88-.85-14.08 4.06-15.9 3.66-.15-.03-.24-.1-.27-.2-.6-1.67.13-2.59 7.44-5.08 7.3-2.48 12.34-3.83 10.38-7.2-.23-.39-.61-.62-1.12-.74-3.92-.85-15.01 5.53-15.01 5.53s-3.06 2.04-4.57 1.71a.94.94 0 0 1-.74-.66c-.68-2.03 12.17-7.96 13.54-11.26.94-2.25.48-3.58-.85-3.87Z"/><path fill="#FFD21E" d="M267.94 237.04c-2.3-5.73-1.24-9.41 4.44-13.05 5.68-3.63 9.89-9.84 9.89-9.84s1.88-3.74 4.11-2.87c2.23.87 2.62 7.16-3 9.71-5.63 2.56-.38 6.29 2.23 3.3 2.6-2.99 9.6-10.6 12.6-11.7 3-1.09 4.65.26 3.27 3.56-1.38 3.3-14.22 9.23-13.54 11.27.67 2.04 5.31-1.05 5.31-1.05s14.17-8.16 16.13-4.8c1.96 3.37-3.08 4.73-10.38 7.21-7.3 2.49-8.03 3.4-7.44 5.09.59 1.67 17.45-7.2 17.67-1.82.22 5.38-15.96 3.37-15.75 7.1.2 3.72 12.63-4.2 13.84.22 1.22 4.42-16.27 5.45-16.41 5.46-5.62.21-19.77.17-22.97-7.79Z"/></g><g clip-path="url(#B)"><path fill="#fff" d="M633.86 219.75a10.47 10.47 0 0 1 2.22 7.87 13.36 13.36 0 0 1-2.06 5.56 31.79 31.79 0 0 1-5.42 6.22 82.94 82.94 0 0 1-7.88 6.35 58.98 58.98 0 0 1-12.88 6.83c-6.44 2.35-12.54 2.8-17.87.32a51 51 0 0 1-12.06 4.33c-2.6 5.27-7.59 8.75-14.04 10.97a59.17 59.17 0 0 1-14.32 2.84c-1.97.16-6.38.27-10.1.04-3.14-.2-5.82-.62-8.12-1.4a13.25 13.25 0 0 1-5.12-3.02 10.47 10.47 0 0 1-3.24-7.5 10.8 10.8 0 0 1-2.77-6.57 11 11 0 0 1 .3-3.6 10.96 10.96 0 0 1-1.08-10.97 10.38 10.38 0 0 1 2.48-3.67 52.75 52.75 0 1 1 96.74-34.54c1.5.05 3.03.45 4.63 1.3a10.98 10.98 0 0 1 6.08 9.2 11 11 0 0 1 2.51 2.6 10.88 10.88 0 0 1 2 6.84Z"/><path fill="#FFD21E" d="M580.57 247.3a43.9 43.9 0 1 0-29.4-82.75 43.9 43.9 0 0 0 29.4 82.74Z"/><path fill="#FF9D0B" d="M607.24 191.22a43.9 43.9 0 1 0-82.74 29.4 43.9 43.9 0 0 0 82.74-29.4Zm-87.5 31.1A48.96 48.96 0 1 1 612 189.53a48.96 48.96 0 0 1-92.26 32.78Z"/><path fill="#3A3B45" d="M575.3 189.88c1.72 0 3.43 2.9 4.67 1.55a6.32 6.32 0 1 0-8.92.4c1.21 1.1 2.73-1.94 4.26-1.95ZM547.26 199.85c-1.32 1.08-.82 4.4-2.64 4.14a6.32 6.32 0 1 1 7.17-5.32c-.24 1.63-3.34.22-4.53 1.18ZM571.73 223.34c11.7-4.16 11.76-15.94 9.86-21.3-.99-2.78-2.55-1.23-5.02 1.31-2.28 2.36-5.34 5.58-9.45 7.03-8.54 3.04-18.39-2.7-16.48 2.67 1.9 5.35 9.38 14.44 21.09 10.29Z"/><mask id="C" width="33" height="25" x="550" y="200" maskUnits="userSpaceOnUse" style="mask-type:alpha"><path fill="#fff" d="M571.72 223.34c11.7-4.16 11.77-15.94 9.87-21.3-1-2.78-2.55-1.24-5.02 1.31-2.29 2.36-5.35 5.58-9.45 7.03-8.55 3.04-18.4-2.7-16.49 2.67 1.9 5.35 9.39 14.44 21.1 10.29Z"/></mask><g mask="url(#C)"><path fill="#F94040" d="M576.34 235.39a10.96 10.96 0 0 0-4.02-21.28c-1.1.03-.95 3.82-2.05 4.2-1.02.37-3.24-2.7-4.07-2.1a10.96 10.96 0 0 0 10.14 19.18Z"/></g><path fill="#FF9D0B" d="M591.84 190.32a4.1 4.1 0 1 0-2.75-7.74 4.1 4.1 0 0 0 2.75 7.74ZM536.48 210a4.1 4.1 0 1 0-2.75-7.74 4.1 4.1 0 0 0 2.75 7.74ZM533.16 225.92a6.59 6.59 0 0 0-4.06 3.95 7.54 7.54 0 0 0 .01 5.03c-.9.06-1.72.2-2.44.46a6.65 6.65 0 0 0-3.98 3.66 7.33 7.33 0 0 0 .13 6.38 7.4 7.4 0 0 0 1.88 2.3 6.7 6.7 0 0 0-.94 4.1c.1 1.18.6 3.53 2.95 5.3a6.6 6.6 0 0 0 1.69 6.13c2.2 2.34 6 3.43 12.72 3.68 4.18.15 7.86-.12 7.9-.12 5.28-.46 9.89-1.38 13.68-2.73 6.97-2.47 11.2-6.38 12.58-11.61 2.21-8.42-.65-14.39-8.76-18.24-4.48-2.13-8.41-6.23-9.25-7.13-2.05-2.84-5.75-5.5-9.81-4.06a7.2 7.2 0 0 0-4.43 4.87 16.6 16.6 0 0 0-4.6-2.13 9.36 9.36 0 0 0-5.27.16Zm1.7 4.76c.6-.21 1.44-.22 2.44.01 3.11.7 11 7.39 13.96 10.03 1 .88 2.19.98 3.11.65 1.84-.65 2.62-2.98-1.3-4.2-5.9-1.83-6.3-8.12-4.2-9.26.1-.05.19-.1.28-.13 2.03-.71 4.16 2.46 4.16 2.46s4.95 5.64 11.04 8.53c6.1 2.9 7.6 6.42 6.04 12.4-1.07 4.06-5 6.57-9.38 8.13-4.55 1.62-9.59 2.2-12.44 2.46-.14.01-17.62 1.17-16.97-3.37.12-.76.58-1.21 1.28-1.46 2.84-1 9.49 1.38 11.7.59.5-.18.77-.51.73-1.08-.26-3.72-16.06.3-16.51-5.07-.09-.95.4-1.52 1.27-1.83 3.75-1.33 14.49 2.27 16.25 1.65.13-.05.21-.13.24-.23.37-1.74-.46-2.56-8.02-4.11-7.55-1.56-12.72-2.27-11.2-5.85.17-.42.53-.7 1.02-.88 3.78-1.34 15.58 3.61 15.58 3.61s3.3 1.65 4.75 1.13a.94.94 0 0 0 .65-.74c.42-2.11-13.06-6.38-14.84-9.5-1.2-2.1-.92-3.48.36-3.94Z"/><path fill="#FFD21E" d="M570.4 251.16c1.56-5.97.05-9.49-6.04-12.38-6.1-2.9-11.05-8.54-11.05-8.54s-2.33-3.47-4.43-2.33c-2.1 1.14-1.71 7.43 4.19 9.26s1.15 6.19-1.8 3.55c-2.96-2.64-10.86-9.32-13.97-10.03-3.11-.7-4.58.83-2.8 3.94 1.78 3.1 15.26 7.38 14.85 9.49-.42 2.1-5.4-.39-5.4-.39s-15.09-6.32-16.6-2.73c-1.53 3.58 3.64 4.3 11.2 5.85 7.55 1.55 8.39 2.38 8.01 4.11-.38 1.74-18.22-4.96-17.76.41.45 5.36 16.26 1.35 16.52 5.07.25 3.73-13.06-2.58-13.71 1.95-.66 4.54 16.82 3.38 16.96 3.37 5.6-.5 19.64-2.3 21.82-10.6Z"/><path fill="#FF9D0B" d="M604.45 200.6a6.59 6.59 0 0 1 5.65.5 7.55 7.55 0 0 1 3.17 3.9 8.99 8.99 0 0 1 2.18-1.18 6.65 6.65 0 0 1 5.4.32 7.32 7.32 0 0 1 3.92 5.03c.2 1.02.19 2-.01 2.97a6.7 6.7 0 0 1 3.32 2.6 7.42 7.42 0 0 1 1.06 5.97 6.7 6.7 0 0 1 2.56 5.82c-.24 3.2-2.5 6.45-7.56 10.88a82.32 82.32 0 0 1-6.2 4.89 56 56 0 0 1-12.34 6.52c-6.96 2.48-12.71 2.11-17.08-1.07-7.03-5.14-8.57-11.58-4.72-19.68 2.14-4.48 2.6-10.14 2.68-11.37-.2-3.5 1-7.9 5.05-9.33a7.2 7.2 0 0 1 6.51.98 16.57 16.57 0 0 1 2.23-4.56 9.35 9.35 0 0 1 4.18-3.2Zm1.7 4.75c-.61.22-1.26.74-1.9 1.55-1.96 2.51-3.87 12.68-4.5 16.6a3.07 3.07 0 0 1-2 2.46c-1.84.65-3.92-.66-1.64-4.08 3.42-5.15-.24-10.27-2.59-9.83-.1.02-.2.04-.3.08-2.02.72-1.67 4.52-1.67 4.52s-.28 7.5-3.18 13.6c-2.9 6.08-1.85 9.77 3.13 13.41 3.4 2.49 8.03 1.96 12.41.4 4.55-1.62 8.83-4.34 11.2-5.94.12-.08 14.41-10.22 11.04-13.32-.56-.52-1.21-.58-1.91-.33-2.84 1-6.5 7.05-8.7 7.84-.5.18-.93.09-1.25-.37-2.15-3.06 12.64-9.91 9.61-14.36-.54-.79-1.28-.92-2.14-.61-3.75 1.33-9.8 10.9-11.57 11.52-.14.05-.25.04-.33-.02-1.38-1.11-1.25-2.28 3.63-8.25 4.88-5.97 8.44-9.79 5-11.6-.4-.22-.86-.21-1.35-.04-3.77 1.34-9.8 12.63-9.8 12.63s-1.53 3.36-2.98 3.88a.94.94 0 0 1-.98-.17c-1.65-1.38 6.11-13.2 5.53-16.73-.4-2.4-1.49-3.29-2.76-2.84Z"/><path fill="#FFD21E" d="M591.5 243.66c-4.98-3.64-6.03-7.33-3.13-13.42 2.9-6.09 3.18-13.59 3.18-13.59s-.38-4.16 1.97-4.6c2.35-.44 6.01 4.68 2.59 9.83-3.42 5.14 3.01 5.53 3.64 1.61.63-3.91 2.54-14.08 4.5-16.59 1.97-2.51 4.08-2.25 4.66 1.29.58 3.53-7.18 15.35-5.53 16.73 1.66 1.37 3.95-3.7 3.95-3.7s7.71-14.43 11.15-12.6c3.45 1.81-.11 5.63-5 11.6-4.88 5.97-5 7.14-3.62 8.25 1.4 1.11 11-15.34 14.04-10.9 3.03 4.46-11.76 11.32-9.61 14.37 2.15 3.05 8.5-10.24 11.86-7.14 3.37 3.1-10.92 13.24-11.04 13.32-4.65 3.15-16.68 10.6-23.6 5.54Z"/></g><g clip-path="url(#D)"><path fill="#fff" d="M481.36 198.64a10.47 10.47 0 0 1 2.96 7.62c-.04 2.06-.62 3.9-1.52 5.73a31.85 31.85 0 0 1-4.8 6.7 83.1 83.1 0 0 1-7.25 7.08 59 59 0 0 1-12.17 8.03c-6.18 2.95-12.21 3.98-17.76 2a51.27 51.27 0 0 1-11.6 5.45c-2.07 5.51-6.72 9.45-12.93 12.28-4.35 1.99-8.98 3.26-13.98 4.18-1.94.35-6.33.88-10.06 1a31.4 31.4 0 0 1-8.21-.63c-2-.47-3.78-1.22-5.38-2.5a10.46 10.46 0 0 1-3.94-7.18 10.8 10.8 0 0 1-3.38-6.27 11.03 11.03 0 0 1-.05-3.62 10.95 10.95 0 0 1-2.12-10.82 10.38 10.38 0 0 1 2.13-3.87 52.75 52.75 0 1 1 93.02-43.58c1.48-.1 3.05.15 4.72.85a10.98 10.98 0 0 1 6.93 8.57 11 11 0 0 1 2.75 2.36 10.88 10.88 0 0 1 2.64 6.62Z"/><path fill="#FFD21E" d="M430.93 231.12a43.9 43.9 0 1 0-37.13-79.57 43.9 43.9 0 0 0 37.13 79.57Z"/><path fill="#FF9D0B" d="M452.15 172.77a43.9 43.9 0 1 0-79.57 37.13 43.9 43.9 0 0 0 79.57-37.13ZM368 212.04a48.96 48.96 0 1 1 88.73-41.41A48.96 48.96 0 0 1 368 212.04Z"/><path fill="#3A3B45" d="M420.24 174.47c1.7-.16 3.68 2.56 4.78 1.1a6.32 6.32 0 1 0-8.84 1.24c1.31 1 2.54-2.19 4.06-2.34ZM393.26 187.06c-1.21 1.2-.4 4.47-2.24 4.37a6.32 6.32 0 1 1 6.64-5.98c-.08 1.65-3.3.54-4.4 1.61ZM419.84 208.12c11.26-5.26 10.2-16.98 7.8-22.14-1.25-2.67-2.65-1-4.87 1.78-2.05 2.56-4.8 6.06-8.74 7.9-8.22 3.84-18.56-.94-16.16 4.22 2.4 5.15 10.72 13.49 21.97 8.24Z"/><mask id="E" width="33" height="26" x="397" y="184" maskUnits="userSpaceOnUse" style="mask-type:alpha"><path fill="#fff" d="M419.85 208.12c11.25-5.25 10.2-16.98 7.8-22.13-1.25-2.68-2.66-1-4.88 1.78-2.04 2.56-4.78 6.05-8.73 7.9-8.22 3.83-18.56-.94-16.16 4.21 2.4 5.15 10.72 13.5 21.97 8.24Z"/></mask><g mask="url(#E)"><path fill="#F94040" d="M425.6 219.68a10.96 10.96 0 0 0-6.03-20.8c-1.1.13-.58 3.89-1.64 4.38-.99.46-3.48-2.4-4.25-1.7a10.96 10.96 0 0 0 11.91 18.12Z"/></g><path fill="#FF9D0B" d="M436.73 173.34a4.1 4.1 0 1 0-3.47-7.44 4.1 4.1 0 0 0 3.47 7.44ZM383.5 198.19a4.1 4.1 0 1 0-3.48-7.44 4.1 4.1 0 0 0 3.47 7.44ZM381.7 214.35a6.6 6.6 0 0 0-3.66 4.33 7.55 7.55 0 0 0 .49 5c-.88.14-1.69.37-2.39.7a6.65 6.65 0 0 0-3.62 4.01 7.32 7.32 0 0 0 .74 6.34 7.39 7.39 0 0 0 2.1 2.1 6.7 6.7 0 0 0-.55 4.18 7.42 7.42 0 0 0 3.44 5 6.6 6.6 0 0 0 2.26 5.94c2.41 2.11 6.3 2.85 13.02 2.45 4.17-.25 7.81-.86 7.84-.87a56.03 56.03 0 0 0 13.37-4.02c6.7-3.12 10.54-7.41 11.41-12.75 1.4-8.6-2.01-14.26-10.44-17.33-4.67-1.7-8.98-5.4-9.9-6.22-2.3-2.63-6.24-4.92-10.14-3.1a7.2 7.2 0 0 0-3.95 5.27 16.6 16.6 0 0 0-4.8-1.68 9.36 9.36 0 0 0-5.21.66Zm2.15 4.59a4.5 4.5 0 0 1 2.43-.23c3.16.4 11.66 6.31 14.85 8.66 1.07.78 2.27.77 3.16.35 1.76-.82 2.32-3.22-1.7-4.06-6.05-1.26-7.04-7.48-5.05-8.82.08-.06.17-.1.26-.15 1.95-.9 4.37 2.05 4.37 2.05s5.47 5.14 11.8 7.44c6.35 2.3 8.19 5.67 7.2 11.76-.68 4.16-4.35 7.03-8.57 9-4.37 2.04-9.33 3.1-12.15 3.63-.13.02-17.43 2.84-17.2-1.74.03-.77.45-1.27 1.13-1.58 2.72-1.27 9.57.47 11.7-.53.48-.22.72-.58.63-1.14-.62-3.68-15.97 1.82-16.93-3.48-.17-.93.26-1.55 1.1-1.94 3.6-1.68 14.63.88 16.33.1.13-.07.2-.15.21-.25.21-1.77-.7-2.5-8.37-3.33-7.67-.83-12.88-1.05-11.7-4.77.13-.42.46-.74.93-.96 3.63-1.7 15.85 2.11 15.85 2.11s3.44 1.33 4.84.68c.32-.16.54-.4.57-.81.22-2.14-13.6-5.11-15.67-8.03-1.4-1.99-1.25-3.4-.02-3.97Z"/><path fill="#FFD21E" d="M421.17 235.94c1-6.09-.85-9.45-7.19-11.76-6.34-2.3-11.8-7.44-11.8-7.44s-2.66-3.24-4.64-1.9c-1.99 1.34-1 7.56 5.05 8.82 6.05 1.26 1.74 6.05-1.46 3.7-3.2-2.34-11.68-8.24-14.85-8.65-3.16-.41-4.48 1.26-2.41 4.19 2.06 2.92 15.89 5.9 15.68 8.03-.22 2.14-5.42.13-5.42.13s-15.61-4.86-16.78-1.15c-1.18 3.72 4.03 3.94 11.7 4.77 7.67.82 8.58 1.56 8.38 3.33-.22 1.77-18.61-3.2-17.65 2.1.96 5.29 16.31-.2 16.93 3.47.6 3.69-13.24-1.33-13.46 3.25-.23 4.57 17.07 1.76 17.2 1.73 5.54-1.02 19.34-4.15 20.72-12.62Z"/><path fill="#FF9D0B" d="M450.27 182.36a6.59 6.59 0 0 1 5.66-.03 7.54 7.54 0 0 1 3.53 3.58 8.98 8.98 0 0 1 2.06-1.38c1.78-.83 3.7-.9 5.4-.19 2.2.9 3.76 2.55 4.39 4.63.3 1 .38 1.97.27 2.96a6.7 6.7 0 0 1 3.55 2.26 7.42 7.42 0 0 1 1.63 5.85c.16.1.31.22.47.33a6.6 6.6 0 0 1 2.63 5.23c.06 3.2-1.88 6.65-6.5 11.54-2.86 3.04-5.67 5.44-5.7 5.46a55.99 55.99 0 0 1-11.66 7.66c-6.7 3.13-12.46 3.32-17.1.56-7.5-4.45-9.64-10.7-6.57-19.14 1.7-4.67 1.62-10.34 1.58-11.58-.53-3.46.23-7.94 4.14-9.77a7.21 7.21 0 0 1 6.58.36 16.57 16.57 0 0 1 1.78-4.75 9.37 9.37 0 0 1 3.86-3.58Zm2.13 4.58a4.5 4.5 0 0 0-1.73 1.72c-1.72 2.7-2.65 13-2.9 16.95a3.07 3.07 0 0 1-1.76 2.64c-1.77.83-3.96-.28-2.02-3.9 2.92-5.45-1.22-10.2-3.52-9.54-.1.03-.2.06-.28.1-1.95.91-1.24 4.67-1.24 4.67s.43 7.5-1.88 13.83c-2.3 6.34-.9 9.91 4.4 13.06 3.62 2.15 8.18 1.18 12.4-.79 4.37-2.04 8.37-5.15 10.58-6.98.1-.09 13.37-11.53 9.72-14.3-.61-.47-1.26-.46-1.94-.15-2.72 1.27-5.79 7.64-7.92 8.63-.47.23-.9.18-1.27-.25-2.43-2.83 11.64-11.07 8.2-15.2-.6-.74-1.36-.8-2.2-.41-3.6 1.68-8.72 11.78-10.4 12.57-.14.06-.25.07-.34.01-1.48-.97-1.47-2.15 2.83-8.56 4.29-6.4 7.47-10.54 3.87-12.03-.42-.17-.87-.12-1.34.1-3.63 1.7-8.57 13.5-8.57 13.5s-1.19 3.5-2.59 4.15a.94.94 0 0 1-.98-.08c-1.78-1.21 4.82-13.72 3.9-17.18-.61-2.34-1.79-3.13-3.02-2.56Z"/><path fill="#FFD21E" d="M441.47 226.47c-5.3-3.15-6.7-6.72-4.4-13.06 2.31-6.34 1.88-13.83 1.88-13.83s-.77-4.11 1.53-4.78c2.3-.66 6.42 4.1 3.5 9.54-2.91 5.45 3.53 5.22 3.78 1.27.26-3.96 1.19-14.26 2.91-16.95 1.72-2.69 3.84-2.62 4.76.84.91 3.46-5.69 15.97-3.91 17.18 1.77 1.2 3.57-4.07 3.57-4.07s6.3-15.09 9.9-13.6c3.6 1.49.43 5.62-3.86 12.03-4.3 6.41-4.31 7.59-2.83 8.56 1.5.97 9.5-16.32 12.94-12.18 3.44 4.14-10.63 12.38-8.2 15.2 2.43 2.84 7.48-11 11.13-8.22 3.65 2.77-9.61 14.21-9.72 14.3-4.34 3.59-15.6 12.15-22.98 7.77Z"/></g><g clip-path="url(#F)"><path fill="#fff" d="M419.77 223.5a10.47 10.47 0 0 1 1.82 7.98 13.36 13.36 0 0 1-2.33 5.45c-1.4 2-3.32 3.92-5.72 5.94a83.2 83.2 0 0 1-8.19 5.95 58.98 58.98 0 0 1-13.2 6.19c-6.55 2.03-12.66 2.18-17.87-.58a50.86 50.86 0 0 1-12.26 3.72c-2.85 5.15-8.01 8.38-14.57 10.28a59.15 59.15 0 0 1-14.44 2.12c-1.97.06-6.38-.05-10.1-.46-3.11-.36-5.77-.9-8.03-1.81a13.26 13.26 0 0 1-4.96-3.26 10.46 10.46 0 0 1-2.86-7.66 10.8 10.8 0 0 1-2.45-6.7 11 11 0 0 1 .48-3.59 10.95 10.95 0 0 1-.54-11.01c.72-1.5 1.62-2.65 2.67-3.53a52.75 52.75 0 0 1 81.04-65.5 53.28 53.28 0 0 1 8.4 9.66 52.78 52.78 0 0 1 8.9 26.15c1.48.12 3 .59 4.55 1.52a10.98 10.98 0 0 1 5.62 9.49 11 11 0 0 1 2.38 2.73 10.88 10.88 0 0 1 1.66 6.92Z"/><path fill="#FFD21E" d="M365.17 248.37a43.9 43.9 0 1 0-25.26-84.1 43.9 43.9 0 0 0 25.26 84.1Z"/><path fill="#FF9D0B" d="M394.6 193.7a43.9 43.9 0 1 0-84.1 25.25 43.9 43.9 0 0 0 84.1-25.26Zm-88.95 26.7a48.96 48.96 0 1 1 93.78-28.16 48.96 48.96 0 0 1-93.78 28.16Z"/><path fill="#3A3B45" d="M362.77 190.77c1.7.08 3.27 3.07 4.58 1.77a6.32 6.32 0 1 0-8.94-.04c1.16 1.17 2.83-1.8 4.36-1.73ZM334.26 199.33c-1.38 1.01-1.04 4.36-2.84 4a6.32 6.32 0 1 1 7.43-4.96c-.33 1.62-3.36.06-4.59.96ZM357.53 224c11.89-3.57 12.54-15.32 10.9-20.77-.84-2.83-2.48-1.37-5.07 1.06-2.4 2.24-5.62 5.3-9.79 6.55-8.69 2.6-18.23-3.6-16.6 1.84 1.64 5.44 8.66 14.9 20.56 11.32Z"/><mask id="G" width="34" height="24" x="336" y="201" maskUnits="userSpaceOnUse" style="mask-type:alpha"><path fill="#fff" d="M357.53 224c11.9-3.57 12.54-15.32 10.9-20.77-.84-2.83-2.48-1.37-5.07 1.06-2.4 2.24-5.61 5.3-9.79 6.55-8.68 2.61-18.23-3.6-16.6 1.84 1.64 5.45 8.66 14.9 20.56 11.32Z"/></mask><g mask="url(#G)"><path fill="#F94040" d="M361.54 236.27a10.96 10.96 0 0 0-2.96-21.45c-1.1-.02-1.13 3.77-2.25 4.1-1.04.32-3.1-2.87-3.96-2.3a10.96 10.96 0 0 0 9.17 19.65Z"/></g><path fill="#FF9D0B" d="M379.26 192.03a4.1 4.1 0 1 0-2.37-7.87 4.1 4.1 0 0 0 2.37 7.87ZM322.98 208.93a4.1 4.1 0 1 0-2.36-7.86 4.1 4.1 0 0 0 2.36 7.86ZM318.89 224.68a6.59 6.59 0 0 0-4.25 3.74 7.55 7.55 0 0 0-.25 5.03c-.89 0-1.72.11-2.46.33a6.65 6.65 0 0 0-4.16 3.46 7.32 7.32 0 0 0-.18 6.37 7.39 7.39 0 0 0 1.76 2.4 6.7 6.7 0 0 0-1.14 4.04 7.42 7.42 0 0 0 2.68 5.45c-.05.19-.1.37-.13.56a6.6 6.6 0 0 0 1.51 5.65c2.09 2.43 5.83 3.72 12.53 4.3 4.17.35 7.86.27 7.89.27 5.3-.2 9.95-.89 13.8-2.04 7.09-2.13 11.5-5.82 13.14-10.98 2.63-8.3.07-14.4-7.84-18.65-4.37-2.35-8.1-6.64-8.89-7.59-1.9-2.93-5.46-5.77-9.59-4.53a7.21 7.21 0 0 0-4.67 4.64 16.6 16.6 0 0 0-4.5-2.35 9.37 9.37 0 0 0-5.25-.1Zm1.45 4.83a4.51 4.51 0 0 1 2.44.13c3.07.87 10.63 7.93 13.45 10.71a3.07 3.07 0 0 0 3.07.81c1.87-.56 2.77-2.85-1.1-4.26-5.8-2.13-5.88-8.42-3.72-9.46.1-.04.19-.08.28-.1 2.06-.63 4.03 2.65 4.03 2.65s4.67 5.88 10.61 9.07c5.94 3.2 7.28 6.79 5.41 12.67-1.27 4.02-5.31 6.33-9.77 7.66-4.62 1.4-9.68 1.73-12.54 1.84-.14 0-17.66.3-16.78-4.2.15-.75.63-1.19 1.35-1.4 2.88-.87 9.4 1.85 11.65 1.17.5-.15.8-.47.79-1.04-.08-3.73-16.06-.5-16.25-5.88-.03-.96.49-1.5 1.37-1.77 3.8-1.14 14.35 2.99 16.14 2.45.14-.04.22-.1.25-.21.46-1.72-.33-2.58-7.8-4.5-7.47-1.93-12.6-2.9-10.9-6.4.2-.41.57-.68 1.06-.83 3.84-1.15 15.39 4.38 15.39 4.38s3.2 1.81 4.69 1.37c.34-.1.59-.33.68-.72.52-2.08-12.73-7.02-14.35-10.21-1.1-2.17-.75-3.53.55-3.93Z"/><path fill="#FFD21E" d="M354.82 251.73c1.86-5.88.53-9.48-5.42-12.67-5.94-3.2-10.6-9.08-10.6-9.08s-2.16-3.58-4.32-2.54c-2.15 1.03-2.07 7.33 3.73 9.46 5.8 2.12.85 6.23-1.98 3.45-2.82-2.78-10.37-9.85-13.44-10.7-3.08-.87-4.62.6-3 3.78 1.63 3.2 14.88 8.13 14.36 10.22-.52 2.08-5.38-.65-5.38-.65s-14.75-7.07-16.44-3.56c-1.7 3.5 3.43 4.47 10.9 6.4 7.46 1.93 8.26 2.79 7.8 4.5-.47 1.72-17.95-5.85-17.76-.47.18 5.38 16.17 2.16 16.24 5.89.08 3.73-12.9-3.23-13.79 1.27-.88 4.5 16.64 4.2 16.78 4.2 5.62-.21 19.73-1.33 22.32-9.5Z"/><path fill="#FF9D0B" d="M391.34 202.91a6.6 6.6 0 0 1 5.62.78 7.55 7.55 0 0 1 2.97 4.06c.75-.48 1.5-.85 2.24-1.07a6.65 6.65 0 0 1 5.37.6 7.33 7.33 0 0 1 3.67 5.21c.15 1.02.09 2-.16 2.97a6.7 6.7 0 0 1 3.19 2.75c.61 1 1.6 3.2.76 6.02a6.6 6.6 0 0 1 2.27 5.94c-.4 3.18-2.82 6.32-8.09 10.49-3.28 2.6-6.4 4.56-6.43 4.58a56.03 56.03 0 0 1-12.65 5.9c-7.08 2.12-12.8 1.48-17-1.92-6.78-5.48-8-11.99-3.74-19.89 2.35-4.37 3.1-10 3.24-11.23-.03-3.5 1.38-7.82 5.5-9.06a7.2 7.2 0 0 1 6.45 1.3 16.59 16.59 0 0 1 2.46-4.45 9.36 9.36 0 0 1 4.33-2.98Zm1.46 4.84a4.5 4.5 0 0 0-1.97 1.45c-2.09 2.42-4.5 12.47-5.32 16.35a3.08 3.08 0 0 1-2.12 2.37c-1.86.56-3.88-.86-1.43-4.16 3.67-4.97.27-10.27-2.1-9.95-.1.01-.2.04-.3.07-2.06.61-1.9 4.43-1.9 4.43s-.66 7.48-3.85 13.42c-3.2 5.94-2.34 9.67 2.46 13.56 3.27 2.65 7.92 2.34 12.38 1 4.62-1.38 9.03-3.89 11.48-5.37.12-.07 14.9-9.48 11.69-12.75-.54-.55-1.19-.64-1.9-.43-2.88.87-6.83 6.72-9.09 7.4-.5.15-.92.05-1.22-.43-2-3.16 13.12-9.28 10.31-13.87-.5-.81-1.23-.98-2.1-.72-3.81 1.15-10.34 10.4-12.13 10.94-.14.04-.25.03-.33-.04-1.33-1.17-1.14-2.33 4.03-8.06 5.17-5.72 8.92-9.35 5.57-11.34-.39-.23-.84-.25-1.34-.1-3.84 1.15-10.42 12.13-10.42 12.13s-1.69 3.28-3.17 3.72a.94.94 0 0 1-.96-.22c-1.58-1.45 6.75-12.87 6.35-16.43-.27-2.41-1.32-3.36-2.62-2.97Z"/><path fill="#FFD21E" d="M376.27 245.29c-4.8-3.89-5.66-7.62-2.46-13.56s3.85-13.42 3.85-13.42-.17-4.18 2.2-4.5c2.37-.32 5.77 4.98 2.1 9.95-3.68 4.97 2.73 5.67 3.55 1.79.82-3.88 3.23-13.94 5.32-16.35 2.1-2.41 4.19-2.04 4.6 1.52.4 3.56-7.94 14.98-6.36 16.43 1.58 1.46 4.13-3.5 4.13-3.5s8.41-14.02 11.76-12.03c3.35 1.99-.4 5.62-5.57 11.34-5.17 5.73-5.36 6.88-4.02 8.06 1.33 1.18 11.75-14.77 14.56-10.18 2.8 4.6-12.31 10.71-10.32 13.87 2 3.15 9-9.81 12.2-6.54 3.22 3.26-11.56 12.67-11.68 12.75-4.8 2.92-17.2 9.76-23.86 4.37Z"/></g><g clip-path="url(#H)"><path fill="#fff" d="M421.56 248.43a10.46 10.46 0 0 1-6.57-4.87 13.36 13.36 0 0 1-1.77-5.66c-.24-2.43-.04-5.14.48-8.23a82.91 82.91 0 0 1 2.35-9.84 58.94 58.94 0 0 1 6.01-13.3c3.65-5.79 8.2-9.88 13.94-11.17a51.01 51.01 0 0 1 6.9-10.8c-1.18-5.76.64-11.57 4.38-17.28 2.62-4 5.86-7.54 9.6-11a83.88 83.88 0 0 1 7.97-6.22 31.47 31.47 0 0 1 7.28-3.85c1.94-.66 3.85-.98 5.89-.75 2.8.31 5.38 1.68 7.15 3.97a10.8 10.8 0 0 1 6.21 3.5c.84.9 1.5 1.94 1.97 3.03a10.96 10.96 0 0 1 7.57 8.02c.43 1.6.5 3.06.28 4.4a52.75 52.75 0 0 1-18.97 102.46 53.12 53.12 0 0 1-12.67-1.87 52.88 52.88 0 0 1-14.49-6.48 52.5 52.5 0 0 1-9.27-7.6c-1.21.87-2.67 1.5-4.46 1.8a10.98 10.98 0 0 1-10.43-3.54 11 11 0 0 1-3.58-.53 10.88 10.88 0 0 1-5.77-4.19Z"/><path fill="#FFD21E" d="M446.86 194.04a43.9 43.9 0 1 0 73.88 47.47 43.9 43.9 0 0 0-73.88-47.47Z"/><path fill="#FF9D0B" d="M460.07 254.71a43.9 43.9 0 1 0 47.47-73.88 43.9 43.9 0 0 0-47.47 73.88Zm50.2-78.13a48.96 48.96 0 1 1-52.94 82.38 48.96 48.96 0 0 1 52.94-82.38Z"/><path fill="#3A3B45" d="M486.14 236.23c-1.35 1.05-4.48-.2-4.63 1.63a6.32 6.32 0 1 0 6.82-5.77c-1.64-.14-.98 3.2-2.19 4.14ZM502.23 211.2c.4-1.67-2.04-4-.44-4.9a6.32 6.32 0 1 1-2.42 8.6c-.8-1.43 2.51-2.22 2.86-3.7ZM468.52 207.58c-6.71 10.44.43 19.8 5.22 22.87 2.48 1.6 2.77-.57 3.17-4.1.36-3.26.82-7.68 3.17-11.34 4.9-7.63 16.2-9.12 11.41-12.2-4.78-3.07-16.26-5.68-22.97 4.77Z"/><mask id="I" width="28" height="31" x="465" y="200" maskUnits="userSpaceOnUse" style="mask-type:alpha"><path fill="#fff" d="M468.52 207.58c-6.72 10.44.43 19.8 5.22 22.88 2.48 1.6 2.77-.58 3.17-4.11.36-3.26.81-7.68 3.17-11.34 4.9-7.63 16.2-9.12 11.41-12.2-4.78-3.07-16.26-5.68-22.97 4.77Z"/></mask><g mask="url(#I)"><path fill="#F94040" d="M457.5 200.87a10.96 10.96 0 0 0 16.19 14.38c.85-.7-1.59-3.6-.96-4.59.6-.91 4.22.17 4.51-.82a10.96 10.96 0 0 0-19.75-8.97Z"/></g><path fill="#FF9D0B" d="M504.56 196.57a4.1 4.1 0 1 0 6.9 4.44 4.1 4.1 0 0 0-6.9-4.44ZM497.43 181.94a6.59 6.59 0 0 0 .8-5.6 7.55 7.55 0 0 0-3.09-3.98 9.01 9.01 0 0 0 1.65-1.86 6.65 6.65 0 0 0 .92-5.33 7.32 7.32 0 0 0-4-4.96 7.4 7.4 0 0 0-2.9-.67 6.71 6.71 0 0 0-1.77-3.82 7.42 7.42 0 0 0-5.58-2.4 6.6 6.6 0 0 0-5.09-3.82c-3.16-.49-6.84.97-12.3 4.89-3.4 2.44-6.15 4.9-6.18 4.92a55.98 55.98 0 0 0-9.16 10.53c-4 6.22-4.95 11.9-2.84 16.88 3.4 8.02 9.32 10.99 18.08 9.07 4.85-1.05 10.47-.22 11.69-.02 3.36 1 7.9.84 10.23-2.79a7.2 7.2 0 0 0 .53-6.56c2.02-.22 3.75-.58 4.95-1.14a9.36 9.36 0 0 0 4.06-3.34Zm-4.25-2.73c-.35.54-1 1.06-1.94 1.49-2.9 1.34-13.22.89-17.18.6a3.07 3.07 0 0 0-2.86 1.4c-1.05 1.63-.24 3.96 3.6 2.52 5.8-2.16 9.95 2.57 8.99 4.76-.04.1-.1.19-.15.27-1.16 1.8-4.78.6-4.78.6s-7.37-1.43-13.96 0c-6.6 1.44-9.95-.42-12.36-6.1-1.64-3.88-.07-8.26 2.45-12.18 2.6-4.06 6.23-7.6 8.33-9.55.1-.1 13.22-11.7 15.48-7.72.38.67.29 1.32-.11 1.94-1.63 2.53-8.35 4.72-9.62 6.7-.29.44-.3.87.08 1.3 2.48 2.78 12.53-10.06 16.17-6.1.64.7.6 1.45.1 2.23-2.14 3.34-12.84 7.06-13.85 8.63-.08.13-.1.23-.05.33.76 1.6 1.93 1.74 8.86-1.65 6.92-3.4 11.45-6 12.44-2.22.11.43 0 .87-.28 1.3-2.17 3.38-14.53 6.69-14.53 6.69s-3.62.7-4.45 2c-.2.3-.24.64-.06 1 .96 1.92 14.24-2.95 17.55-1.58 2.24.93 2.86 2.2 2.13 3.34Z"/><path fill="#FFD21E" d="M452.55 184.75c2.4 5.68 5.76 7.54 12.35 6.1 6.59-1.43 13.96 0 13.96 0s3.97 1.32 4.93-.87c.96-2.19-3.2-6.92-8.98-4.75-5.8 2.16-4.7-4.2-.75-3.92 3.96.28 14.29.74 17.19-.6 2.89-1.35 3.11-3.46-.2-4.83-3.3-1.37-16.58 3.5-17.55 1.57-.96-1.92 4.51-3 4.51-3s15.8-4.23 14.81-8c-.99-3.76-5.51-1.16-12.44 2.23-6.93 3.4-8.1 3.26-8.86 1.65-.76-1.6 17.44-7.22 13.8-11.19-3.64-3.96-13.69 8.88-16.17 6.1-2.48-2.8 11.9-5.95 9.65-9.94-2.25-3.98-15.37 7.63-15.48 7.72-4.13 3.82-14.12 13.84-10.77 21.73Z"/><path fill="#FF9D0B" d="M456.54 245.6a6.6 6.6 0 0 1-4.77 3.05 7.55 7.55 0 0 1-4.9-1.16 9.02 9.02 0 0 1-1 2.28 6.65 6.65 0 0 1-4.47 3.04 7.33 7.33 0 0 1-6.18-1.58 7.4 7.4 0 0 1-1.81-2.35 6.71 6.71 0 0 1-4.2-.02 7.42 7.42 0 0 1-4.5-4.08 6.6 6.6 0 0 1-5.59-3.04c-1.77-2.67-1.97-6.63-.68-13.23.8-4.1 1.9-7.63 1.91-7.66a56 56 0 0 1 5.77-12.7c4-6.23 8.77-9.46 14.18-9.6 8.7-.24 13.86 3.9 15.76 12.67 1.06 4.85 4.15 9.62 4.84 10.64 2.3 2.64 4.05 6.84 1.72 10.47a7.2 7.2 0 0 1-5.75 3.2 16.55 16.55 0 0 1 1.02 4.98c-.01 2-.46 3.7-1.35 5.08Zm-4.25-2.74c.35-.54.54-1.35.55-2.38.02-3.2-4.7-12.4-6.59-15.88a3.08 3.08 0 0 1 .07-3.18c1.05-1.64 3.5-1.87 3.8 2.23.44 6.17 6.47 7.98 8.06 6.2l.18-.25c1.16-1.8-1.44-4.6-1.44-4.6s-4.36-6.11-5.8-12.7c-1.43-6.6-4.51-8.87-10.68-8.7-4.21.11-7.55 3.37-10.06 7.28-2.61 4.06-4.33 8.83-5.23 11.55-.04.13-5.15 16.9-.58 17.29.76.06 1.31-.29 1.71-.91 1.63-2.53.82-9.55 2.1-11.53.27-.44.66-.63 1.2-.47 3.57 1.1-3.94 15.58 1.19 17.24.9.3 1.57-.05 2.06-.83 2.15-3.34 1.1-14.62 2.1-16.19.08-.12.17-.18.28-.18 1.77.03 2.38 1.03 2.18 8.74-.21 7.71-.7 12.9 3.15 12.24.44-.07.8-.36 1.07-.8 2.17-3.37.04-15.99.04-15.99s-.85-3.58-.02-4.88c.2-.3.47-.48.88-.47 2.14.08 3.24 14.18 5.86 16.62 1.77 1.65 3.19 1.7 3.92.55Z"/><path fill="#FFD21E" d="M440.44 203.6c6.17-.17 9.25 2.1 10.68 8.7 1.44 6.59 5.8 12.7 5.8 12.7s2.85 3.06 1.26 4.84c-1.6 1.79-7.62-.02-8.06-6.19-.44-6.16-5.77-2.53-3.87.95 1.9 3.48 6.6 12.69 6.59 15.88-.02 3.2-1.85 4.27-4.47 1.83-2.63-2.44-3.72-16.54-5.87-16.61-2.14-.08-.85 5.34-.85 5.34s2.72 16.13-1.12 16.8c-3.83.66-3.35-4.54-3.14-12.25.2-7.71-.4-8.71-2.19-8.74-1.77-.03.69 18.87-4.44 17.2-5.12-1.66 2.39-16.14-1.18-17.24-3.56-1.1-.45 13.3-5.02 12.9-4.56-.39.55-17.14.59-17.28 1.76-5.34 6.71-18.6 15.29-18.83Z"/></g></g><defs><clipPath id="a"><path fill="#fff" d="M0 0h637v230H0z"/></clipPath><clipPath id="b"><path fill="#fff" d="M97 84.26 211.73 49l32.67 106.28-114.73 35.27z"/></clipPath><clipPath id="d"><path fill="#fff" d="M525.75 88.34 484.37 201 380 162.67 421.38 50z"/></clipPath><clipPath id="f"><path fill="#fff" d="m460.51 100 119.39 12.43-11.52 110.6L449 210.58z"/></clipPath><clipPath id="h"><path fill="#fff" d="M241 19.61 358.27-6l23.72 108.63-117.26 25.61z"/></clipPath><clipPath id="j"><path fill="#fff" d="m206.97 24 106.11 56.1-51.97 98.3L155 122.3z"/></clipPath><clipPath id="l"><path fill="#fff" d="m138.91 186.64 69.25-98.03 90.82 64.15-69.25 98.04z"/></clipPath><clipPath id="n"><path fill="#fff" d="m152.75 138 98.34 68.82-63.75 91.1L89 229.1z"/></clipPath><clipPath id="p"><path fill="#fff" d="M244 121.66 335.53 44l71.93 84.78-91.52 77.66z"/></clipPath><clipPath id="r"><path fill="#fff" d="M54.97 135.24 161.06 79.1l52 98.27-106.08 56.15z"/></clipPath><clipPath id="t"><path fill="#fff" d="m38.4 136 110.05 47.94-44.4 101.93L-6 237.94z"/></clipPath><clipPath id="v"><path fill="#fff" d="m339.87 27 115.91 31.16-28.87 107.38L311 134.38z"/></clipPath><clipPath id="x"><path fill="#fff" d="M64 161.65h120.03v111.19H64z"/></clipPath><clipPath id="z"><path fill="#fff" d="m219.22 127.13 117.23 25.76-23.86 108.6-117.23-25.76z"/></clipPath><clipPath id="B"><path fill="#fff" d="M492 176.19 605.1 136l37.23 104.77-113.1 40.2z"/></clipPath><clipPath id="D"><path fill="#fff" d="M336 168.76 444.77 118l47.02 100.76-108.77 50.76z"/></clipPath><clipPath id="F"><path fill="#fff" d="m280.24 172.96 114.96-34.53 31.98 106.5-114.96 34.52z"/></clipPath><clipPath id="H"><path fill="#fff" d="m560.42 196.1-64.88 100.98-93.54-60.1L466.88 136z"/></clipPath></defs></svg>